<?xml version="1.0" encoding="UTF-8" standalone="no"?><svg xmlns="http://www.w3.org/2000/svg" viewBox="0 0 3226 649"><path fill="#000000" d="m2737.28 395.18-.42 1.67a.83.82 89.5 0 1-.56.58q-3.78 1.17-7.15-.68-.52-.29-1.09-.18c-6.62 1.26-15.55 2.15-22.16.8-1.31-.27-2.05.38-3.21.38h-90.94q-1.02 0-1.73-.87-.3-.37-.75-.2c-8.6 3.22-18.26.04-18.36-10.44q-.19-21.87-.15-43.77 0-.6-.54-.34c-4.31 2.02-5.81-1.48-7.6-4.4a.8.79 48.1 0 1 .04-.9l7.53-10.16a2.88 2.86-27 0 0 .56-1.7v-77a.74.74 0 0 1 .62-.73q2.17-.33 3.06-2.26a.67.67 0 0 0-.84-.91q-1.26.48-2.43-.09a.73.72-76.8 0 1-.4-.65l-.01-114.09c0-1.35.51-1.78 1.59-2.4a.38.38 0 0 0-.02-.67l-1.09-.56a.89.87 14.1 0 1-.48-.78v-11.12a.8.79-9.2 0 1 .55-.75l2.58-.83a.61.61 0 0 0 .39-.78q-.98-2.8 1.21-4.73a.49.49 0 0 0-.32-.85l-3.25-.04a1.33 1.33 0 0 1-1.07-2.1q.56-.79.16-1.57-.25-.5-.25-1.06v-9.75a2.05 1.77 59.2 0 1 .12-.68q.6-1.61 1.87-2.73a.52.52 0 0 0-.23-.89l-1.18-.28a.79.78-84.2 0 1-.6-.74q-.14-6.43 1.08-12.69c.56-2.84-2.24-6.7-.06-8.29a.87.85-21.6 0 0 .36-.8c-.85-7.52-2.88-11.06 3.12-17.34a1.03 1.01 61.4 0 0 .25-.87c-.54-2.86-2.07-4.44.2-7.15a.46.46 0 0 0-.18-.72q-5.59-2.3-4.71-8.26a.83.83 0 0 1 .65-.7q2.89-.64 3.3-3.64a.71.71 0 0 0-.94-.77c-1.85.68-3.16-.36-3.13-2.33q.15-11.54 11.88-13.35c3.3-.5 6.8-1.36 8.88 1.33a1.03 1.02 70.8 0 0 .81.4h3.79q.57 0 1.05-.29 1.95-1.14 4.14-.4a.4.4 0 0 0 .36-.04l1.91-1.21q.41-.26.9-.19 3.38.49 6.66 1.41c2.25.63 4.16.45 6.4.66a.45.45 0 0 0 .45-.63c-1.54-3.5-1.86-7.49 1.68-9.74q.42-.27.87-.07 9.69 4.28 18.64 9.94a1.83 1.79 61 0 0 .98.29c3.66.06 9.37.89 12.28-1.53q.38-.31.86-.33c8.07-.24 16.53-.77 24.33 1.72a.92.91 32.9 0 0 .89-.19q2.36-2.13 4.56-1.7c9.54 1.89 17.6 2.72 27.77.84q.91-.17.72.9-.09.54.46.55c4.31.1 7.03-1.87 11.61-.46a1.56 1.51 42.4 0 0 .98-.03c3.19-1.14 4.91.54 7.74.52l10.61-.04c3.57-.01 6.67-1.88 10.49-2.02a.9.89-14.5 0 1 .85.49l.72 1.43q.35.67 1 .29l3.61-2.08a1.06 1.01 31.6 0 1 .61-.13c5.3.61 8.96 3.61 13.66.75q3.35-2.03 6.36.92.37.36.88.36c7.3.03 14.11.39 21.5-.96q7.78-1.42 11.95-1.32c2.68.06 5.41 3.54 9.02 2.01q3.06-1.29 6.32-1.85a.89.88 67.9 0 1 .87.37q1.68 2.41 3.79 1.79 5.44-1.59 9.38-.32.48.15.84-.2l1.61-1.55a.24.23 19.7 0 1 .18-.08q13.31-1 15.87 11.82c.69 3.44 1.65 6.63-.03 8.58a1.4 1.39-22.5 0 0-.35.84q-.3 4.32-.29 8.63 0 1.95.96 4.32c.95 2.34 2.23 5.72.62 8.02a.75.75 0 0 0-.15.45l.14 7.28a1.68 1.68 0 0 0 3.21.67q.89-1.97 3.03-2.91a1.36 1.33-2.9 0 0 .73-.79q.7-1.98 2.72-2.51a1.11 1.1-84.9 0 0 .74-.62c1.47-3.27 2.98-6.9 6.55-6.9q.42 0 .74.27 1.91 1.65 2.64 4.02.17.54.66.27 2.95-1.64 5.83-3.35c3.08-1.82 4.24-4.54 5.99-7.47a.97.95 47.7 0 0 .03-.91q-1.27-2.48-.13-5.12a1 .98-84.5 0 1 .69-.58q2.78-.64 2.97-3.63.02-.41-.38-.44l-2.73-.23a.79.78 89.1 0 1-.72-.7c-1.37-11.84 8.4-16.22 18.31-15.28a1.45 1.42 70.1 0 1 .89.43c4.57 4.86 14.05-2.44 18.58-5.03a1.31 1.31 0 0 1 1.39.05q3.31 2.23 3.28 6.23a.71.7.4 0 0 .71.71h32.19q.47 0 .65-.44.78-1.94 3.6-1.8 14.71.73 16.84 13.85c.61 3.75 1.26 6.52-1.25 8.9a.96.95-27.9 0 0-.28.89q.72 3.62.74 7.28c.01 2.44-1.36 4.33-.95 7.19a.44.38-67.5 0 0 .06.18l2.05 3.24a.83.82-54 0 1 .1.67c-1.06 3.75-2.89 8.48-1.86 12.31.68 2.52 1.93 4.47 1.81 7.16-.36 8.7-2.16 17.49-2.21 25.8q-.04 7.54 0 15.08.01.51.32.91c4.24 5.44-.04 7.11-.39 12.01-.21 2.98 1.06 6.15 1.4 8.11q.41 2.39.87 4.76a1.35 1.32 52.5 0 1-.1.84l-2.34 5.04a.94.93 17.4 0 0 .69 1.31c1.43.25 1.78 1.58 1.65 2.92-.4 4.2-2.11 8.06-2.11 12.12.01 5.64-.56 11.76.65 17.28.56 2.53-.27 4.95.14 7.47q.77 4.8-.28 8.72-.77 2.85-.48 4.92.07.49.55.59.53.12.77.56.15.29.07.79-1.19 7.08-1.22 14.26c-.01 4.63 1.16 10.09 1.44 15.21.2 3.53 1.75 6.61-.86 10.39q-.3.43-.21.95 2.78 16.22 3.49 32.66.02.54.46.86 12.65 9.26 22.31 21.6a1.19 1.18 32.5 0 1 .22.98q-.71 3.4-3.74 5.08a.62.62 0 0 0-.01 1.07q37.57 22.23 73.13-3.11.43-.31.96-.36 1.09-.09 1.44-.67 5.88-9.59 12.25-18.85.29-.42.22-.93-.34-2.18.36-4.2c3.95-11.34 1.53-22.97 4.51-35.42q.13-.51-.2-.92-1.69-2.12-1.47-5.25c.55-7.76 1.76-15.29 1.76-22.37q0-13.24-.21-26.48c-.12-8.18.66-17.7.46-26.62-.1-4.42-1.96-8.68-2.04-13.44a.8.79 79.9 0 1 .53-.77c3.2-1.11.61-4.5-.32-6.26q-.23-.44-.19-.94c.4-5.01 2.35-9.23 2.01-13.62-.36-4.64-4.22-6.47-.32-11.61q.32-.41.32-.93v-16.1c-.02-8.21-4-21.61-1.23-29.1q2.28-6.18-.58-13.29-1.07-2.67 1.23-4.9.34-.33.44-.8c.58-2.68-.61-4.86-.64-7.03q-.05-4.18.59-8.31a.68.68 0 0 0-.35-.71c-3.95-2.14-.16-13.69 1.98-16.47q5.47-7.11 14.55-5.13c10.32 2.26 22.88 3.58 33.42 3.05 3.56-.19 6.63-2.23 10.4-2.69q.53-.07.95.26l1.23.92q.42.32.93.19c2.54-.63 4.05.78 5.99.9q1.56.1 3.12-.06.52-.05.82-.48c1.76-2.52 6.18-1.85 9.04-1.25 7.56 1.56 12.34 6.06 11.47 14.53q-.06.57-.55.85-1.23.68-2.61.33-.77-.2-.74.6.13 3.1 3.06 3.6a.86.85-2 0 1 .7.65q1.52 6.26-4.56 8.21a.47.46 61 0 0-.21.75c2.39 2.78.66 4.52.28 7.4q-.07.52.28.91 2.45 2.63 3.74 5.91c1.27 3.24-.17 7.46-.76 10.84a1.06 1.05 33.4 0 0 .16.76l1.28 1.92a1 1 0 0 1 .05 1.01c-2.54 4.87-.01 11.67.04 17.06.02 1.4-.45 2.25-1.8 2.54a.48.48 0 0 0-.29.76c3.45 4.53 2.11 12 1.65 17.35q-.06.67-.73.7l-3.18.15a.49.49 0 0 0-.32.85q2.03 1.93 1.04 4.68-.25.68.45.84l1.51.36a2.13 2.12 6.5 0 1 1.65 2.07v9.67a1.41 1.4 66.1 0 1-.36.94q-1.17 1.29.01 2.73.31.38.31.87l.05 113.93a1.24 1.22-20.7 0 1-.43.93q-1.42 1.25-3.01-.05-.63-.51-.55.3c.39 3.8 3.99 1.63 3.98 5.58-.02 11.08.59 23.04-.98 33.28-4.38 28.47-16.86 54.95-37.1 75.33q-.39.39-.93.39h-2.46q-.45 0-.66.4-4.17 8.09-12.64 10.28c-4.07 1.06-5.53 1.6-8.04 4.36-5.13 5.67-15.29 6.95-21.75 9.27q-15.72 5.63-32.29 8.01c-2.39.34-3.86 1.36-6.35-.14a1.35 1.3-33.7 0 0-.89-.16c-1.78.31-3.18-.08-4.87.18q-22.07 3.49-44.17.43c-2.83-.39-5.54-.38-8.39-.5a1.07 1.07 0 0 0-.79.3l-.29.29q-.41.42-.99.34-18.94-2.56-36.9-8.87-1.72-.61-9.17-2.74-4.74-1.36-8.92-3.63c-3.41-1.86-5.26-5.93-9.48-6.7q-10-1.82-14.62-11.01a.73.72 65.7 0 0-.92-.35q-1.39.56-2.8-.04-.43-.18-.75-.52-29.08-30.81-36.29-72.18c-1.94-11.13-1.73-26.12-1.22-36.33q.11-2.31 2.76-2.17a.62.61 13.3 0 0 .59-.36l1.35-2.97a.56.55 4.6 0 0-.65-.76l-2.28.6a1.24 1.24 0 0 1-1.56-1.19l-.08-21.73a1.4 1.39-68 0 0-.42-1q-6.71-6.5-12.13-14.07-.31-.43-.79-.66l-14.83-7.21a.47.46 23.3 0 0-.64.25c-1.74 4.63-4.03 12.75-7.59 16.1a1.72 1.72 0 0 1-2.88-.96c-.94-5.53 1.78-10.69 3.61-15.92q.19-.55-.33-.81l-4.83-2.37q-.57-.28-.85-.85l-.3-.64a1.21 1.19 82.6 0 0-.83-.65q-2.46-.53-2.97-2.98a1.48 1.48 0 0 0-1.98-1.08q-3.28 1.24-2.34 4.41.15.52.07 1.05-.17 1.03.08 2.12a.55.52-38.1 0 1-.05.33l-1.87 3.31a.64.64 0 0 0 .37.92c1.1.35 1.71.85 1.74 2.09q.21 10.59-.2 21.17a2.12 2.06-57.7 0 0 .21 1c3.12 6.41-8.43 10.91-12.72 10.91q-58.18.03-116.37-.42-.51 0-.55.51l-.28 4.17a.9.9 0 0 1-1.41.68q-2.67-1.88-4.21-4.72-.3-.54-.91-.54h-16.76a1.03 1.03 0 0 1-.83-.42l-1.69-2.26a.74.74 0 0 0-1.24.09q-7.29 13.44-19.44 22.67a1.2 1.17-19.2 0 0-.47.94q-.06 4.46-1.09 8.82c-.78 3.29.84 5.09.65 8.1q-.48 7.71-.78 15.44c-.2 5.3 1.19 10.92 1.03 16.61q-.02.46.44.47c4.95.11 11.48-.76 16.16.74 3.43 1.09 5.75-.24 8.35-.46q5.69-.49 11.41-.15.53.03.85.45 1.07 1.39 2.24-.09a1.2 1.18-70.4 0 1 .93-.45h23.96a2.35 2.33 57.5 0 1 1.01.23q1 .47 1.99.01a2.54 2.39 30.5 0 1 1.07-.24h121.19q7.95 0 11.87 6.68c2.22 3.78 1.12 13.84 1.13 18.42a.76.75 74.2 0 1-.35.64l-1.48.96a.49.49 0 0 0-.1.73c1.2 1.39 1.77 2.23 1.79 4.15q.23 20.84.11 41.67c-.06 11.15-2.17 15.45-14.08 15.47q-35.61.06-71.24.03-.24 0-2.25-.39c-2.36-.44-8.23 2.07-9.62-1.08q-.22-.5-.77-.53-4.33-.28-8.16 1.81a1.02 1.02 0 0 1-.95.02q-1.91-.93-3.78.01-.49.24-1.01.07c-2.77-.87-5.09-1.57-8.1-1.12-4.58.68-22.34 2.83-25.47-.05q-.42-.39-.93-.16-2.79 1.25-3.84 1.23-1.97-.05-1.77-1.98a.73.72-86.3 0 0-.7-.8l-1.17-.05q-.48-.01-.6.45Zm163.51-299.15c-4.96-1.21-7.99-10.48-10.21-14.85a.63.62 60.6 0 0-.88-.25l-7.06 4.28q-.46.27-.62.78-2.54 7.65-10.36 9.63a1.95 1.92-75.3 0 0-.94.56c-9.07 9.87-19.54 19.04-31.43 25.33q-1.95 1.04-3.25 2.86-4.29 6.01-9.93 12.75a.39.39 0 0 0 .11.59q10.96 6.16 20.39 14.48.39.34.91.31 1.75-.1 3.31.7a1.66 1.65 50.1 0 0 1.2.11l1.44-.42q.48-.14.8.25l2.77 3.38a.54.54 0 0 0 .96-.34c.03-2.48 4.92-1.69 6.63-1.66a.93.92-9 0 1 .86.62q.54 1.54.11 3.15-.13.45.13.84l2.62 3.96q.23.36.1.77l-1.81 5.76a.74.73 21.8 0 0 .39.89l3.52 1.67q.47.22.6-.28c2.05-7.8 7.12-4.27 9.45.4.76 1.52 1.5 2.02 3.06 2.38q.57.13.73.69.53 1.81 2.32 2.14a1.3 1.3 0 0 1 .89.63q1.13 2.02 3.4 2.55.48.11.85-.21 4.87-4.28 9.76-8.54c1.69-1.47 3.46-1.67 5.53-1.32a.71.7-87 0 1 .59.66c.15 2.45.02 4.31-1.87 6.15q-5.34 5.21-10.41 10.3a.93.93 0 0 0-.07 1.22c2.77 3.6 6.33 9.71 10.38 11.77q4.55 2.32 9.37 4.23.62.24.62-.42v-71.42q0-.41.19-.77l.35-.65q.26-.47.15-1-.97-4.68-.88-9.5c.05-2.7-.6-5.11 3.2-5.19a.55.54-9.6 0 0 .51-.71q-.89-2.78.9-4.95a.5.5 0 0 0-.37-.81l-2.87-.09a1.05 1.03 72.7 0 1-.8-.43q-.6-.84-.28-1.81.17-.49.1-1.01c-.55-4.43-1.42-11.1 1.7-14.75a.54.53-51.2 0 0-.08-.77c-1.09-.86-1.55-1.48-1.51-2.97.17-6.05 1.97-10.34.12-16.82a.97.95-31 0 1 .24-.93l1.26-1.26a.85.85 0 0 0 .2-.91q-2.38-6.12-.16-12.29a.85.85 0 0 0-1.5-.76l-4.35 6.47q-.25.37.07.68l2.91 2.86a.69.69 0 0 1 .05.93q-2.88 3.64-7.6 3.57a.55.55 0 0 0-.51.34l-1.17 2.91q-.16.41-.59.53c-2.39.64-2.94 2.45-4.63 3.63q-1.55 1.08-3.14 2.31a.67.66 60.2 0 0-.21.79c2.39 5.89 4.34 9.34 4.2 15.93q-.01.46-.46.35Zm-88.1-1.15c-1.69-3.05-7.62-1.07-9.64.53a1.62 1.57 25.1 0 1-.99.34h-4.31q-.55 0-.7.52l-3.26 11q-.14.45.1.86c1.37 2.41 4.13 3.66 5.75 5.08q2.31 2.03 5.38 3.55a.98.98 0 0 0 1.37-1.17c-.97-3.12-2.06-4.3-.52-7.66q.21-.45.68-.32c2.16.61 3.55 1.36 4.48 3.58q2.96 7.04 6.05 14.13.21.49.7.27c3.92-1.77 10.88-4.29 13.39-7.8 5.47-7.66 11.16-15.81 18.51-21.78q.63-.51-.18-.51h-35.75a1.22 1.19-14.1 0 1-1.06-.62Zm-45.31 40.21c-.38-5.16 6.99-11.67 10.21-15.42a.69.68-45.4 0 0 0-.91l-11.05-12.83q-.29-.33-.72-.45-10.65-2.97-19.34-9.78-.39-.31-.88-.3-13.01.26-26-.31c-3.82-.16-7.99.66-11.35.63q-10.02-.1-19.48.09a.94.94 0 0 0-.78 1.45c2.8 4.43.19 5.82 0 9.8q-.47 9.42 1.43 18.68a1.5 1.48-36.3 0 1-.17 1.06q-1.97 3.45.12 6.88a1.13 1.1 33.4 0 1 .16.73q-.83 6.29-1.63 12.58c-.56 4.4 6.12 4.73 8.6 3.37q.45-.26.97-.26 20.05-.2 40.11-.08c4.96.03 9.38 1.23 14.18 2.28a1.7 1.66 39.5 0 0 .95-.08q3.87-1.54 7.83-.97c5.92.86 12.57-.4 16.96-.26q2.31.07 3.17-.39a.47.45 36.7 0 1 .32-.04l7.06 1.66a.92.92 0 0 0 .95-.35q1.4-1.89 3.79-1a.78.76 27.8 0 0 .9-.27l4.28-5.84a.53.53 0 0 0-.39-.84q-3.01-.19-3.76-3.23a.93.92 60.4 0 1 .24-.88l.26-.25a.74.73-34.1 0 0 .16-.8c-.71-1.69-1.26-5.49-3.67-4.99a.78.77 57.4 0 1-.62-.14l-8.2-6.46q-.5-.4-.98.02c-2.66 2.31-5.89 6.09-9.25 7.14q-1.91.59-3.86 1.12-.48.13-.52-.36Zm9.55-31.49q4.25 1.74 8.54 3.39a.75.74 19 0 0 .98-.47l2.99-9.81a.74.74 0 0 0-.71-.96h-16.7q-.5 0-.95-.22l-.76-.36a.65.65 0 0 0-.85.9c2.01 3.69 3.37 5.84 7.46 7.53Zm-83.96 131.02c-2.38-.82-3.76 2.12-5.16 3.55a.54.54 0 0 0 .72.81l4.57-3.62q.61-.49-.13-.74ZM1244.49 55.01l50.37-43.68q.4-.36.94-.39c4.2-.23 7.98 1.39 11.65 1.48q4.72.12 9.45.11c5.81-.01 14.13-1.19 21.4-.67.83.06 1.49.64 2.29.64q5.64-.01 11.29.01c3.46.02 6.34-1.67 9.77-2.26q1.65-.29 3.1 2.32a.38.37 59.8 0 0 .52.14l3.83-2.26a1.15 1.1-54.3 0 1 .76-.14c4.81.82 8.99 3.78 13.73.76q3.5-2.23 6.06 1.04a1.01 1-18.9 0 0 .79.38q6 .02 11.95.01c6.61-.01 13.35-1.8 20.19-2.22 3.02-.18 4.94 1.15 7.6 2.29a1.64 1.61-41.4 0 0 1.13.06l7.72-2.42a.91.91 0 0 1 1.02.35q2.18 3.13 5.6 1.33.48-.25 1.01-.31 3.57-.39 7 .62.53.15.85-.29l.71-.98q.34-.48.93-.54c9.07-.95 14.48 3.83 16.1 12.19.49 2.49 1.19 6.56-.5 8.35q-.31.33-.32.78l-.25 10.91q-.01.43.29.73l.73.72a.83.81 17.5 0 1 .2.37l1.22 5.18q.12.51-.03 1.02c-.4 1.31-.86 1.99-.85 3.41q.03 14.23 0 28.45c-.02 10.79-5.73 14.97-16.01 14.98q-26.93.04-53.87.01-.52 0-.87-.38c-2.68-2.97-5.74-1.68-8.55.13a1.73 1.71-61.3 0 1-.94.28q-27.04-.07-54.08-.01c-1.86 0-2.69-1.13-2.43-2.94q.1-.7-.4-.2l-.39.39q-.32.31-.16.73.33.88-.25 1.62a1.02 1 18.4 0 1-.8.39h-17.75q-.65 0-1.04-.53-1.41-1.92-3.55-.15a.85.84 40.6 0 1-1 .07q-1.97-1.22-3.45.21-.39.37-.93.37l-27.97.01a1 .99 70.1 0 0-.76 1.63q2.77 3.33.41 7.16-.27.44-.31.95-.85 10.12 1.36 19.99a1.54 1.51-37.3 0 1-.15 1.05q-1.94 3.56-.01 7.18a1.42 1.36 35.1 0 1 .16.82l-1.57 13.74q-.07.58.39.94c4.52 3.62 6.4.81 10.89.81l45.23.01c3.15 0 5.9 1.91 9.08.79q4.23-1.48 8.49.45a1.62 1.59 51 0 0 .97.11q8.12-1.64 16.33-1.27c2.65.11 5.19.73 7.86 1.25q.53.1.99-.17l1.28-.76q.47-.27 1.01-.31 8.6-.66 16.99 1.21.49.11.91-.17l1.61-1.05q.45-.29.94-.1l5.64 2.22q.48.19.95-.03c2.71-1.29 5.83-.51 9.04-.55 4.9-.05 7.77 3.93 12.8 4.13q2.66.11 5.34-.08a.64.63-85.8 0 0 .58-.51q.7-3.59 4.47-3.71.52-.02.85.38.97 1.17 1.99.26a1.85 1.85 0 0 1 2.88.56l1.55 3.09a.57.57 0 0 0 1.02-.01l.35-.75a.86.84 12.6 0 1 .77-.48l5.3-.01a1.37 1.37 0 0 1 1.36 1.57c-.62 4.23 3.42 5.93 2.61 8.47q-1.35 4.26-2.92 8.44a.65.63 5.7 0 1-.53.42l-2.21.28a.68.68 0 0 0-.5 1.03c1.59 2.66 4.18 4.88 3.36 8.18a.74.74 0 0 1-.63.56l-.84.09a.53.53 0 0 0-.28.94q3.8 3.2 3.09 8.26-.08.54-.46.93-.91.92-.08 1.96.3.39.4.86.75 3.49-1.33 6.17a.55.55 0 0 0 .14.81q1.66 1.05 1.65 2.27-.06 10.37.03 20.72c.06 7.15-5.94 12.28-12.79 12.28q-70.43.02-140.86.01c-2.05 0-3.03-.63-3.38-2.63a.91.91 0 0 0-.86-.75l-17.45-.78q-.68-.03-1.09.52l-2.6 3.53q-.32.43-.31.96.05 4.02 1.26 7.83c.39 1.24.1 2.07-.7 2.96a1.07 1.06 62.4 0 0-.26.84c.65 5.25 2.02 10.34.67 15.59-1.25 4.87.81 6.42.48 10.46l-1.12 14.29c-.38 4.93.6 9.52 1.16 14.43q.04.41-.09.8l-.49 1.5q-.22.67.49.68c5.27.06 11.73-.71 16.76.72 3.87 1.11 5.94-.75 9.43-.72q4.95.04 9.84.01a1.2 1.2 0 0 1 .96.48q1.06 1.38 2.26-.07a1.07 1.06-70.1 0 1 .82-.39l146.06-.01c6.95 0 11.5.78 15.06 6.36 2.31 3.62 1.22 14.25 1.2 18.74a.88.86 72.9 0 1-.35.68l-1 .71a.64.64 0 0 0-.19.81q1.22 2.46 1.26 4.2.47 22.87.21 45.75c-.12 10.28-6.65 11.47-15.65 11.48q-34.97.04-69.94.01-.24 0-2.09-.37c-2.16-.43-8.29 1.96-9.43-1.02q-.2-.54-.77-.59-4.24-.37-7.93 1.77a1.26 1.26 0 0 1-1.21.02q-1.96-1.02-3.91.14-.47.27-.98.08-4.6-1.77-6.26-1.5c-4.85.79-24.02 3.3-27.23.15a.73.72-35.9 0 0-.84-.13c-1.68.83-6.14 2.75-5.91-1.17q.04-.73-.67-.57l-.99.23a.68.68 0 0 0-.53.66c-.05 3.75-6.36 2.35-8.23 1.3q-.43-.24-.92-.15c-6.61 1.25-15.88 2.15-22.45.75-1.15-.24-2.05.4-3.07.41h-91.11a1.39 1.38 66.1 0 1-.94-.37c-1.54-1.44-2.95.07-4.48.27q-15.57 1.98-15.59-13.45-.11-67.79.02-135.56.01-.47.28-.85.77-1.07 2.11-1.07a.8.79 11.9 0 0 .73-.47l.95-2.11a.43.43 0 0 0-.71-.46q-1.47 1.68-2.96-.09-.33-.39-.34-.9-.22-7.64-.14-15.27.14-11.95.11-15.34-.31-40.79.13-81.58.01-1.06.61-2.87.18-.52.08-1.06-1.18-6.45-.5-13.03.06-.64.69-.81l2.29-.64a.48.48 0 0 0 .33-.59q-.78-2.76 1.09-4.98a.52.52 0 0 0-.55-.83q-1.97.59-3.7-.46a.92.91-62.8 0 1-.36-1.15q.5-1.12.3-2.23c-.65-3.49-1.57-10.74 1.55-14.07a.42.42 0 0 0-.09-.65l-1.12-.66q-.59-.34-.61-1.03-.14-6.95 1.37-13.76a.9.88-48.2 0 0-.02-.49l-1.44-4.56a.81.81 0 0 1 .25-.87c2.16-1.83.37-6.64.08-9.13-.45-3.9 1.9-7.23 4.26-10.02q.33-.4.24-.9c-.5-2.55-1.93-4.25.07-6.93a.51.5 32.9 0 0-.16-.74c-3.57-1.99-5.84-4.47-4.27-8.61q.16-.43.6-.53 2.79-.6 2.97-3.6a.59.59 0 0 0-.78-.6c-2.02.7-3.1-.22-3.18-2.28-.44-10.92 9.34-14.64 18.51-13.81q.52.05.88.42c3.49 3.59 7.57.64 11.5.64q.49 0 .87-.3c2.04-1.62 5.94-.15 8.21.48 7.3 2.01 15.9.66 23.09-1.33q.47-.13.93.05 1.51.57 2.54 1.81.31.37.8.37h7.42q.42 0 .77-.23 2.28-1.52 4.79-.59a.57.57 0 0 0 .75-.69q-.3-1.09.43-1.84.43-.44.92-.05c3.16 2.54 9.9.99 13.16 1.15q.74.04.35.66c-9.56 15.33-20.87 29.52-31.94 43.83a.2.2 0 0 0 .29.27ZM662.32 205.92l.28.07a.38.38 0 0 0 .42-.49l-2.64-8.46a1.76 1.76 0 0 1 1.94-2.26c5.19.78 6.6 8.58 7.05 12.75q.06.56-.22 1.04l-.63 1.1a.83.81-46.8 0 0 .02.84c8.93 13.86 14.52 30.97 18.19 46.94q.14.62-.42.91l-1.67.87a.39.38 61.5 0 0-.15.53l.15.26q.26.43.72.25 3.61-1.36 4.57 2.49c.77 3.12 1.84 7.82.97 10.46q-.43 1.29-2.35 2.21a.27.27 0 0 0-.03.48q5.74 3.59 3.96 10.24c-.58 2.19 0 3.77.9 5.64a.46.46 0 0 0 .86-.1l.7-2.94a1.37 1.36 77.5 0 1 .47-.74c2.07-1.62 3.97-.77 4.75 1.65q7.69 23.79 15.31 47.6.66 2.07-1.18 2.69-.53.17-.99-.14l-1.85-1.23a1.08 1.08 0 0 0-1.63 1.22l1.78 5.61q.17.54.61.19c8.34-6.42 10.35 9.98 10.75 14.28a1.73 1.72-79.1 0 1-2.5 1.7l-2.38-1.21q-.64-.32-.51.39.47 2.68 2.56 4.39a.53.53 0 0 0 .87-.41v-.52q0-.59.51-.91c2.43-1.52 3.88-.38 4.65 2.06l5.91 18.81c3.69 11.77-6.05 15.29-15.48 15.3q-40.77.04-81.56.01c-.95 0-1.67-.27-2.54-.58-7.51-2.68-22.94-64.07-25.42-74.01q-.14-.56-.72-.6l-2.71-.16a1.65 1.65 0 0 1-1.27-2.58l1.68-2.48q.27-.4.22-.88l-.4-3.82a1.62 1.62 0 0 0-1.5-1.44l-12.23-.78a.62.62 0 0 0-.65.74l.23 1.19a.71.71 0 0 1-.08.51q-.82 1.47-2.73.8a.63.62-66.7 0 0-.76.31l-.68 1.33q-.25.5-.77.72-4.64 1.94-8.13 5.58-.64.67-1.57.69-10.24.21-20.48.26a1.04 1.03 76.3 0 1-.92-.57q-.93-1.85-.52-3.94a.28.28 0 0 0-.48-.25l-.29.29q-.08.07-.09.18l-.46 3.45a.93.92-86 0 1-.91.8h-49.36q-.57 0-1.06-.29-.8-.47-1.63.01-.48.28-1.04.28h-9.5a.57.56 5.5 0 0-.56.45q-1.47 7.19-6.23 12.67-.34.39-.32.9c.11 2.84 1.19 9.92-2.48 8.86q-.49-.14-.76-.58-.24-.39-.71-.29a.22.22 0 0 0-.12.36q1.95 2.14 1.19 4.89c-3.92 14.22-8.8 31.76-16.72 44.25-2.92 4.6-7.5 3.82-12.2 3.76-2.3-.03-4.49-.94-3.14-3.68a1.14 1.13 76.7 0 0-1.92-1.19c-.88 1.17-2.58 3.37-4.2 3.08q-1.49-.27-1.35-2.2a.63.63 0 0 0-.78-.65l-1.32.32a.72.72 0 0 0-.52.91c1.48 4.78-5.97 3.39-8.35 3.36-.95-.01-1.46-.17-1.96-.96a.57.57 0 0 0-.86-.11q-2 1.81-3.62-.22-.36-.45-.16-1 .28-.8-.23-1.54t-.78.11l-.22.71a.12.11 42.1 0 0 .01.1q.86 1.74-.37 2.52-.66.42-2.21.4c-3.31-.03-6.46.67-9.13-1.84a.72.7-26.7 0 0-.57-.18q-.77.1-.64.86a1 .99-5.3 0 1-.98 1.17q-11.42.02-21.53 0l-3.31.01c-2.98.01-10.74.9-14.01-1.14-5.57-3.47-7.9-9.38-5.66-15.67l52.5-147.63q.13-.35.7-.81.41-.33.56-.83 2.82-9.31 6.05-18.49.19-.52.66-.81l.29-.16q.43-.26.51-.76 1.84-11.15 8.37-20.41a.88.83-31.3 0 0 .15-.54q-.63-7.85 3.86-14.16.3-.42.34-.92c.32-3.69 3.91-18.8 10.26-16.76q.31.1.43-.21l3.72-9.99q.16-.42-.14-.75-1.8-1.95-2.5-4.57a1.77 1.76-14.3 0 1 1.29-2.16l2.46-.6a1.72 1.72 0 0 0 .52-3.12c-3.18-2.01-.24-5.69 1.1-7.79a1.56 1.56 0 0 0 .24-.72q.37-4.83 1.64-9.52.15-.56.56-.96l.36-.37q.35-.35.46-.83c.5-2.33.9-3.6 2.33-5.97.77-1.29.83-2.88 1.18-4q5.45-17.6 12.14-34.77c2.87-7.37 6.68-17.04 11.9-23.01q.3-.35.29-.81-.03-.99-.95-1.55-.47-.28-.48-.83-.12-4.59 1.67-8.64c1.2-2.7.94-5.58 4.38-7.21a.51.5 69.9 0 0 .27-.59l-.74-2.83q-.15-.56.21-1.02l4.41-5.53a.9.89 53.4 0 0 .13-.9q-.86-2.11-.4-3.14c4.11-9.17 12.34-8.96 21.01-8.64 5.9.22 12.82-.47 19.32.34a.7.7 0 0 1 .6.59l.4 2.74a.38.37-9.7 0 0 .44.31l4.31-.82a.5.49-14.3 0 0 .38-.63q-.32-1.11.45-1.99.37-.43.95-.44 17.59-.28 31.62.1 1 .03 1.93.74.41.32.83.02 2.49-1.8 4.99-.09a.86.85-54.8 0 1 .2 1.2l-1.05 1.45a.79.78 8.2 0 0 .9 1.2q2.1-.73 3.16 1.21a2.06 2.06 0 0 0 3.13.59q1.12-.93 2.51-.57a.51.48-15.7 0 1 .21.11l1.25 1.02a.35.34-80.7 0 0 .54-.39c-.67-1.78-1.9-4.59-.37-6.2a1.18 1.17-68.6 0 1 .83-.37c14.01-.26 18.41 27.11 22.02 36.78q2.73 7.29 5.53 14.55 1.37 3.56-1.87 4.36-.51.12-.51.65.01 1.01 1.43 1.03.58.01 1.09-.27.95-.53 2.12-.31a1.07 1.04-4.9 0 1 .79.65q.48 1.22 1.26 3.63 6.53 20.31 13.01 40.64c.73 2.28-.78 3.84-2.93 2.73q-4.65-2.39-6.54-7.39-.15-.41-.58-.34-.19.02-.27.12-.08.1-.01.29 2.05 5.27 3.44 10.75a.54.52 87.2 0 0 .41.38q.53.09.71-.35a1.73 1.67 49 0 1 3.19.28q1.91 6.32 7.89 9.17a1.39 1.35 3.3 0 1 .68.74l8.76 23.2q.17.45.05.91c-.54 2.07 5.91 11.76 3.96 15.27q-.37.66-1.75.97-1.85.41-3.78.68a.51.5-23.8 0 0-.32.82q2.84 3.47 7.42 3.51a1.41 1.38 65.2 0 1 .87.33c3 2.59 2.69 5.59 2.2 9.23a.94.93 85 0 1-.63.76l-2.83.93a.8.8 0 0 0-.39 1.24q2.52 3.38-.55 6.24a.39.39 0 0 0 .14.65l3.62 1.19q.54.18.59.75.49 5.77 2.73 11.12.16.39.56.53Zm-96.1 14.31q-1.52-2.66-2.6-5.81-11.14-32.68-20.47-66.38a.28.28 0 0 0-.53-.01l-27.17 86.38q-.2.63.45.71l2.27.26a.86.86 0 0 1 .74.67l.58 2.71a.56.56 0 0 0 .46.44l2.23.33a.59.59 0 0 0 .67-.49l.41-2.62q.09-.58.64-.79c2.78-1.07 4.22.99 6.02 2.62a.86.85-31.5 0 0 .81.19q5.49-1.58 9.77 2.04.36.3.34.78-.05 1.79 1.66 1.5.53-.08.88.31c1.87 2.1 7.33 1.54 9.41 1q.51-.13.71-.61 3.7-8.9 13.03-8.11c2.71.23 4.27 1.54 4.59 4.22a.55.54-7.6 0 0 .63.47q4.77-.72 4.75 3.97a.53.52-8.3 0 0 .68.5q.74-.21.72-.8c-.12-2.65.19-4.12-2.24-5.5a.9.89 15.3 0 1-.44-.77q.01-1.84 1.59-2.82a.96.96 0 0 0 .17-1.5c-2.04-2.04-5.9-7.48-.12-8.25a.46.46 0 0 0 .37-.59l-1.26-4.01a.41.41 0 0 0-.8.05l-.23 1.46a.5.5 0 0 1-.96.1l-.85-2.26a.69.69 0 0 0-.93-.38l-3.81 1.69a1.7 1.7 0 0 1-2.17-.7Zm107.12 18.5q-.5-.6-1.21-.72-.63-.11-.54.53.32 2.18 2.4 1.96a.59.59 0 0 0 .48-.84q-.2-.4-.62-.57-.3-.12-.51-.36Zm-210.11 40.28q1.31-3.74-.64-6.63c-3.38-5.02-3.08-10.38-10.93-10.87a1.28 1.28 0 0 1-1.2-1.2q-.11-1.91-2.44-1.87-8.37.12-14.85 4.86c-3.34 2.45-5.25 7.24-7.31 10.93a.52.47-35.2 0 0-.06.27l.65 7.76a.57.57 0 0 0 .15.33q2.01 2.22 1.79 5.26a.8.8 0 0 0 .65.84l2.37.47a.93.92-9.3 0 1 .63.45c3.35 6 10.27 6.43 16.53 6.5q.51.01.59.51.85 5.1 2.58 9.93c1.11 3.12 3.47 4.42 6.25 5.75q.46.23.75.66l2.43 3.68q.32.48.87.32c2.54-.73 4.31-1.92 7.1-2.27 2.14-.28 3.77-1.25 5.87-1.63 6.25-1.14 8.35-8.25 10.32-14.63.68-2.21.15-3.74-.85-5.66a.9.89-41 0 1 .07-.96q.98-1.3.66-2.97a.86.86 0 0 0-.75-.69l-2.62-.29a.79.78-5.9 0 1-.65-.52l-1.21-3.48q-.2-.57-.69-.92-5.67-4.13-12.73-4.4-.52-.02-.98.2l-1.76.81q-.93.43-.59-.54Zm220.76-7.81q.1.79.51 1.42a.46.46 0 0 0 .82-.4l-.46-1.24a.45.45 0 0 0-.87.22Zm-41.6 72.07q.87 1.55.85 3.45-.01.51.47.71l2.66 1.12q.51.21.79.69c1.17 2.03 2.27 3.23 4.71 3.79 12.23 2.84 17.51.2 23.51-10.53 1.27-2.27.74-4.39 1.14-6.92.42-2.67-.45-4.23-2.4-5.79a1.43 1.41-76.3 0 1-.49-.82c-1.74-9.12-15.01-10.79-22.31-8.86-5.66 1.49-8.43 7.05-10.41 12.17-1.07 2.74-.61 5.31-.33 8.14.15 1.54 1.31 1.95 1.81 2.85ZM1047.5 229.3q.37-5.75-1.01-.16-4.75 19.33-10.05 39.8-.13.49-.78 1.02-.47.38-.61.97l-5.72 23.92a1.3 1.29 3.5 0 1-1.12.99l-1.32.15a.43.42-28.2 0 0-.23.75q1.35 1.12 1.1 2.5c-.54 2.99-7.21 34.56-15.82 25.21a.54.54 0 0 0-.81.03l-.35.43q-.4.49.19.7c5.49 2 5.85 13.88 4.71 18.41-2.47 9.9-5.38 22.43-10.63 31.96q-.24.43-.19.92c.58 5.55-1.11 10.38-2.36 15.68-.52 2.2-1.47 3.17-3.75 2.6a.91.91 0 0 0-.96.35q-2.87 3.93-7.8 1.98a.55.54 27.4 0 0-.65.2l-.93 1.37q-.44.64-1.11.27l-1.81-1a.46.45 33.9 0 0-.58.11q-1.06 1.27-2.67.56-.49-.22-.6-.75-.14-.64-.65-.91-.39-.2-1.01-.02c-11.02 3.13-25.65 2.4-35.48 2.04-1.84-.07-5-2.41-6.28-.45q-.29.45-.82.5c-3.09.29-6.05-.18-9.17.03q-4.24.28-8.38-.98a1.39 1.37 39.5 0 0-1 .09l-1.68.85a1.28 1.27 35.8 0 1-.76.12c-13.66-2.35-15.64-24.27-18.43-34.59q-17.95-66.48-35.73-133.02-.23-.88-.28-1.63a.42.42 0 0 0-.83-.06q-1.76 8.59-.08 17.1c.7 3.51-.18 6.48-.69 9.86-.53 3.58.31 6.67.9 10.18.31 1.85-.28 2.98-.74 4.73q-.14.54.2 1 1.3 1.69-.4 2.92a.83.83 0 0 0-.34.76q1.91 19.11 1.48 38.27l-.32 1.84c-.17.97.35 1.88.39 2.79.26 5.43-2.32 7.7-.04 13.23a.77.75-33.2 0 1-.19.86q-1.4 1.29-1.06 2.46 1.58 5.3 1.22 10.81a2.42 2.33-28 0 1-.36 1.1q-1.21 1.88.15 3.89a1.13 1.12 31.3 0 1 .19.77q-.55 4.92-2.32 9.55-.17.44-.07.91l2.3 10.29a.6.6 0 0 1-.16.57c-.76.76-1.19 1.14-1.2 2.3q-.03 7.24.02 14.47a.78.75 68.3 0 1-.22.54l-6.37 6.25q-.43.42-1.01.3l-3.24-.67q-.54-.11-.63.43c-.45 2.44-3.96 1.75-5.73 1.76q-.59 0-1.08-.34-1.95-1.35-4.02.18a1.04 1.03-52.2 0 1-1.01.13l-2.9-1.17q-.56-.22-1.07.1l-1.39.89q-.32.2-.7.2h-14.2a.97.97 0 0 1-.73-.33q-1.17-1.34-2.51-.04a1.41 1.41 0 0 1-1 .39l-7.42-.07q-.49-.01-.85-.32l-3.69-3.14a.4.4 0 0 0-.65.42c1.48 5.13-7.07 2.86-9.16 1.67a.63.63 0 0 0-.79.13c-2.92 3.41-16.46-.92-19.11-2.43q-3.94-2.23-2.47-7.19.15-.5-.35-.65-1.53-.48-1.5-2.06.01-.52.39-.88.82-.77.65-1.51-2.21-9.39-1.08-17.06c.31-2.16-.19-3.18-.19-4.73l.01-48.62a1.17 1.17 0 0 1 .46-.93l1.35-1.02a.66.66 0 0 0 .2-.78q-2.66-6.13-1.93-12.7c.19-1.71 1.17-2.74 2.06-4.14a.67.66 37.4 0 0-.12-.85c-1.28-1.14-2.01-2.01-2.01-3.84q-.02-27.92-.01-55.82 0-1.4 1.26-2.04.37-.19.35-.6l-.14-4.75a.92.9-23.8 0 1 .28-.7q1.88-1.78 1-4.26-.17-.46-.54-.78-3.22-2.8-2.14-7.4.39-1.67 1.94-1.4a.85.85 0 0 0 .96-1.07q-.53-1.86-1.23-4-.35-1.05.41-1.78.35-.34.53-.79c1.72-4.43-5.38-5.14-1.64-11.5q.26-.44.1-.92-1.3-3.98-1.24-5.52.56-15.35.37-30.71c-.06-5.01.7-12.69-.08-19.12-.29-2.38.26-4.77.04-7.22-1.01-10.76-.24-22.57-.23-33.45q0-1.46 2.35-3.07a.6.59-36.9 0 0 .13-.87l-1.85-2.28q-.38-.46-.41-1.06-.06-1.35 1.03-2.13a.84.84 0 0 0 .34-.78q-1.82-13.63-1.62-24.29.04-2.22 2.21-1.9.52.08.7-.42.36-1.03-.08-2.1-.18-.42-.16-.87.67-13.97-1.1-27.84a1.1 1.06 63.6 0 1 .27-.86q1.02-1.14 1.21-2.62.09-.65.74-.65h.52a.56.56 0 0 0 .26-1.06c-6.17-3.26 4.5-11.99 7.48-8.55q.34.4.76.09c3.25-2.44 8.4-3.94 11.41-.29a.79.77 62.5 0 0 .79.26l5.12-1.29a.72.7 8.4 0 0 .43-.31q.6-.95 1.77-.86.53.03.91.41 2.44 2.41 5.04-.31a.84.84 0 0 1 .98-.16l2.49 1.27a.4.38 58 0 0 .19.05q8.93 0 17.85.02 2.57 0 2.84 2.23.07.56.56.28c3.27-1.86 8.95-3.65 12.37-1.37a1.21 1.16 54.8 0 0 .92.18c5.15-1.11 6.2-1.27 11.14.74q.52.21 1.02-.05 10.15-5.27 21.11-1.97.36.1.69-.08 3.44-1.97 6.84-.35.45.22.83-.11 1.36-1.14 2.44-1.06c17.07 1.31 17.63 19.81 20.64 32.32l36.08 149.97q.13.54-.12 1.29-.15.46.05.9c6.72 14.58 9.71 33.31 12.24 49.07a.32.32 0 0 0 .63.01l3.9-21.9a2.24 2.24 0 0 1 2.17-1.85l4.27-.07a.41.4-9.5 0 0 .38-.53l-.11-.35q-.16-.52-.66-.3c-5.91 2.68-2.19-9.79-1.49-11.37q1.15-2.6 1.42-4.57 1.72-12.96 4.99-25.61 1.11-4.33 1.99-5.47a3.74 3.38-22.4 0 0 .62-1.3q17.21-71.54 34.41-143.16c1.73-7.21 1.57-12.41 9.75-15.11 3.26-1.07 11.41-3.08 14.48-.91q.41.29.9.19 5.96-1.18 14.37-.84l27.18 1.13c2.61.1 4.89-.71 7.39-1.29q1.13-.26 1.95.91a.61.6-38.5 0 0 .9.1l.96-.86a.95.95 0 0 1 .81-.22l6.92 1.39a.67.67 0 0 0 .28 0l5.65-1.4q.44-.11.86.06 3.03 1.23 6.25 1.34.54.02.94-.33c2.77-2.44 8.68.3 10.81 2.15q.41.36.85.05l4.19-2.89q.32-.22.72-.24c15.07-.7 18.75 8.56 18.7 21.28q-.1 28.39-.02 56.71a1.11 1.11 0 0 1-.3.76l-3.89 4.12a1.16 1.16 0 0 0 1.26 1.88q1.34-.52 2.47.33a1.03 1.02 19.2 0 1 .4.81l-.04 13.9a.59.59 0 0 1-.29.51l-1.49.88q-.48.29-.21.79c2.56 4.72 2.29 7.89 1.49 13.25-1.36 9.17.54 18.97.56 28.21q.06 46.96-.01 93.92 0 .49-.3.88c-1.5 1.98 1.58 3.94-.66 6.76q-.33.41-.21.92c.54 2.33 1.18 4.46 1.19 6.85.05 8.84 1.25 20.31-2.14 28.4q-.19.46-.08.96c.84 3.59 2.21 7.45 2.22 11.14l.01 4.38q.01.63-.52.99-1.22.82.1 1.93a1.21 1.17 21.1 0 1 .43.93q-.03 5.41-.01 10.7c0 2.15-.87 3.89-1.49 5.9q-.17.55.32.86c.84.51 1.18.8 1.18 1.88q-.03 23.67-.03 47.33 0 .47-.33.79l-.84.84q-.37.38-.31.9c1.52 12.76-5 17.34-16.94 17.43q-48.91.36-61.49.03c-12.39-.32-15.15-9.21-15.38-20.16q-.26-11.97-.2-23.93c.03-4.11 1.25-7.31 2.65-11.02a1.01 1-55.8 0 0-.19-1.02q-1.26-1.38-.04-2.85a.7.7 0 0 0 0-.9c-3.37-4.08-2.63-7.73-2.14-12.63q.07-.67.74-.71l2.3-.13a.53.52 80.2 0 0 .47-.67q-.16-.57-.74-.52a2.76 1.94-3.6 0 1-2.98-1.82c-.08-4.14-.96-11.58 1.07-15.08q.27-.46-.12-.82-.94-.86-.95-1.91c-.28-19.28.57-40.62-.02-61.86q-.21-7.57.21-14.09Zm-222.96 21.62-.83-3.19q-.11-.43-.46-.69c-8.68-6.36-20.05-8.12-27.72.06-8.96 9.55-6.78 17-2.53 28.67q.2.53.76.56 2.3.13 3.19 2.17a.91.91 0 0 0 1.01.53c2.55-.5 3.82 2.93 4.76 4.75a.82.81 74.9 0 0 .75.44q2.79-.15 4.89-1.86.43-.35.97-.42c3.83-.49 8.29-.61 11.41-2.93q5.38-3.99 7.9-10.47.17-.47.11-.96-.19-1.46.54-3.53.86-2.44-.08-6.43a1.35 1.33-37.9 0 1 .12-.92c2.04-3.94-1.47-4.38-4.1-5.08a.98.97.6 0 1-.69-.7Zm117.43 92.22c1.35 1.37 3.05 1.41 4.3 3.19a1.75 1.75 0 0 0 .78.61c5.78 2.24 15.8 2.4 19.2-4.15a1.17 1.17 0 0 1 .78-.6l2-.45q.41-.09.65-.44.48-.69.31-1.53a1.46 1.45 53.9 0 1 .15-1c7.72-13.72-3.82-25.83-17.83-25.71-2.65.02-8.63 3.33-10.23 5.04q-2.13 2.27-2.78 5.51-.1.52-.5.86-2.32 1.97-1.7 4.95.11.52-.05 1.03c-1.34 4.19 2.1 9.84 4.92 12.69ZM32.55 246.66a.11.1-.3 0 0-.12-.11q-13 2.38-25.63 6.22a.76.76 0 0 1-.97-.6q-3.55-20.35-4.37-40.61c-.11-2.7.39-6.09.31-9.08-.59-22.45 2.45-41.19 8.47-63.39q.14-.5.58-.74l.74-.41q.51-.28.55-.86.36-4.76 3.39-8.4a1.24 1.24 0 0 0 .26-1c-.19-1.07-.42-2.24-.15-3.29q5.16-20.46 18.46-36.87 1.25-1.54 1.75-3.45c1.52-5.88 9.48-14.04 15.6-16.15q.45-.16.53-.64c1.34-8.01 7.37-12.77 14.44-15.77q.5-.21.4-.76-.36-1.97.98-2.95c13.76-10.09 30.99-20.62 47.94-25.35 2.6-.72 4.31-3.44 7.25-.39q.4.42.77-.04c3.75-4.66 10.29-5.6 15.86-5.51 1.17.02 1.81.41 2.41 1.35q.28.45.67.1c7.15-6.27 19.5-5.68 28.39-5.44a1.22 1.22 0 0 0 .85-.32q1.39-1.25 2.84-.97c8.61 1.66 15.86 1.25 24.06 1.28q.76 0 .86.75l.46 3.31a.52.52 0 0 0 .87.3c4.44-4.31 12.04-2.87 17.46-1.55q.48.11.84.44c1 .9 2.35.78 3.39 1.04 9.47 2.34 43.71 10 47.14 18.19q.19.46.69.42c11.52-.86 37.22 27.05 44.97 35.67q3.55 3.94 6.05 8.52c9.45 17.31 17.8 35.68 19.73 55.63 1.06 10.91-4.77 15.64-15.16 15.7q-32.94.16-65.8-.03c-11.12-.07-14.43-9.4-16.16-18.47q-.51-2.66-1.69-4.49c-12.42-19.34-30.7-33.13-54.38-33.59-7.69-.14-16.99-1.08-24.41 1-4.89 1.37-10.33 3.47-15.34 4.05-1.34.15-1.74 1.2-2.72 1.81q-9.85 6.08-19.65 12.16-.41.25-.49.72-.18 1.09-.47 1.41c-21.35 23.29-27.58 55-28.8 85.5-.68 16.73 2.22 33.84 6.01 50.12.39 1.68-.05 3.74.91 5.26 3 4.75 5.01 10.97 6.98 14.76 18 34.46 50.23 51.35 88.8 43.16 27.58-5.85 44.2-26.52 52.35-51.96a.54.54 0 0 0-.47-.7l-13.63-1.12q-.53-.04-.93.31c-1.95 1.73-8.46.12-11.01-.25q-.49-.07-.91.2-2.5 1.65-5.24.33c-2.42-1.17-3.66 2.34-6.37-.28q-.37-.34-.86-.3c-10.83.94-40.09 5.13-35.06-16.05q.13-.53-.17-.99-.94-1.5.33-2.55a1.09 1.09 0 0 0 .39-.97c-.48-4.32-1.3-8.45-1.15-12.74q.63-17.61 1.36-35.22c.34-8.31 6.55-10.76 14.14-10.76q69.67-.01 139.33.01c9.75 0 10.5 7.18 10.5 15.44q0 89.78.04 179.54c0 9.07-5.59 10.98-13.75 10.99q-26.25.04-52.5.02c-11.49-.01-13.9-4.98-15.4-15.39q-.08-.6-.58-.26l-4.86 3.34a1.75 1.75 0 0 1-2.66-.91c-.59-1.87-2.64-5.39.4-6.36q.54-.17.82-.66l3.53-6.23a1.04 1.03 9.9 0 0-1.08-1.53q-3.01.52-4.23 3.24a.88.88 0 0 0 .23 1.04c2.94 2.5-2.7 5.79-4.18 6.85q-.4.28-.35.76c1.18 11.59-13.61 16.61-22.75 18.45-3.71.74-8.72-1.74-12.25-2.93-1.53-.51-2.64-2.02-4.87-1.38q-.43.13-.52.56-1.03 4.95-4.37 8.83c-2.53 2.92-10.98 1.85-9.73-2.44q.15-.53-.18-.97-1.55-2.02-4.01-1.19-.5.17-.5.69v5.47a2.16 1.92 88.5 0 1-1.8 2.14l-17.53 1.11a.9.89-30.2 0 1-.5-.13q-2.69-1.69-3.96-4.6-.14-.33-.51-.28l-5.84.95q-1.81.29-2.86-1.21-.95-1.35-.05-3.76.26-.71-.15-1.01a.6.6 0 0 0-.96.4q-.31 2.32-2.7 2.44a.73.72-23.4 0 0-.49 1.23q1.24 1.28.84 3.12a2.02 2.01 6 0 1-1.97 1.59c-6.95-.02-15.87-1.14-18.79-8.62q-.2-.51-.73-.41c-3.76.74-9.9 2.75-13.5 1.44-56.88-20.71-93.45-71.9-107.94-128.72q-.12-.48.31-.72 7.94-4.44 15.39-9.4.82-.55 2.16-.1.48.16.96.03 2.2-.58 2.83-2.59.17-.54.74-.54 1.64 0 1.85-1.93ZM2217.63 91.94q-2.36-1.89-2.72-4.89a.68.68 0 0 0-.91-.56l-3.75 1.32a.8.79 45.5 0 1-.56-.01c-4.46-1.79-2.97-9.55-2.93-13.45.02-2.58 1.11-4.96 1.31-7.7a1.65 1.61 32.2 0 0-.22-.92q-1.8-3.06-.24-5.97.23-.43-.08-.8c-2.03-2.37.01-5.32 1.66-7.71a.81.81 0 0 0-.09-1.03l-.47-.47q-.38-.37-.38-.91v-7.46q0-.54.34-.95l2.17-2.7a.45.44 25.2 0 0-.26-.71c-4.16-.84-4.14-4.28-3.72-7.8.51-4.28-1.26-8.34 5.06-9.45a.42.42 0 0 0 .2-.73c-1.57-1.32-1.11-2.77.42-3.85q5.77-4.07 13-3.97.58.01 1.04.37 2.47 1.91 5.75 1.02a1.38.22 17.5 0 1 1 .15q.98.25 1.14 1.22a.88.88 0 0 0 .66.72q1.66.42 2.13-1.07.15-.47.63-.63c6.86-2.23 18.15-2.77 25.13-1.06q3.47.85 7.58-.67 1.36-.5 2.76.72.38.34.88.3c2.25-.18 4.42-1.03 6.55-1.03l57.73-.02q2.77 0 8.58.73c7.13.9 13.77-.73 20.31-.73q52.96.02 105.92.01a.77.75 84.4 0 1 .74.62l.39 2.04a1.01 1-18.6 0 0 1.43.71c9.39-4.68 18.41-3.35 31.43-3.35 10.2 0 19.95 4.6 20.13 16.25a.88.86 15.1 0 0 .43.73c4.03 2.38 4.67 5.96 2.29 10.05q-2.53 4.35-5.41 8.82a.42.42 0 0 0 .41.64q2.07-.31 3.59-1.63a.69.69 0 0 1 1.14.54c-.2 6.09-1.88 10.64-3.36 16.46-1.12 4.42.32 7.73-3.22 11.85q-.48.56.15.94l.79.47a.78.74-88.2 0 1 .3.34c1.43 3.36 3.47 7.09 2.71 10.73-1.15 5.52-10.08 16.55-15.03 7.24q-.26-.48-.77-.32-4.1 1.22-8.3.28-.51-.12-.86.27c-2.46 2.7-4.89 4.27-8.8 4.29q-14.8.07-29.62.01a.96.91 64.8 0 1-.62-.24l-3.78-3.45q-.37-.34-.85-.18l-11.58 3.84a1.27 1.26 68.7 0 1-1.55-.69q-1.49-3.28.99-5.78.38-.38-.16-.37-5.5.06-10.2 2.84-.44.26-.68.71c-1.34 2.41-3.02 3.36-5.92 3.35q-5.97-.05-11.93.01-.52 0-.52.52-.03 13.27-.01 26.49c.01 2.52-1.36 3.62-3.7 3.75q-.52.03-.56.54-.01.14.03.27.15.42.59.32c4.99-1.13 3.78 7.92 3.13 10.84-.14.65.51 2.05.51 3.01v127.18q0 .51-.25.96c-1.55 2.86-1.97 5.82-.66 8.86.93 2.15.26 5.75.54 8.11.74 6.1.04 12.23.14 18.37.43 25.49.27 51.01.21 76.51-.01 2.76-1.17 7.19-3.66 9.36-2.21 1.91-7.64 6.7-10.14 3.91q-.38-.42-.93-.31l-6.72 1.39q-.57.12-1.05-.21c-4.11-2.79-6.34 1.98-10.03-.81q-.33-.25-.69-.04-3.84 2.36-7.69.18a1.45 1.4-35.3 0 0-.99-.15q-6.87 1.46-13.82 1.12-13.29-.64-26.56-1.42-.5-.03-.88.31c-2.15 1.94-3.67.94-6.02.42-8.58-1.88-10.56-7.61-10.55-15.99l.01-18.41c0-3.88 1.79-5.01 5.34-5.51a.66.65 87.4 0 0 .57-.63l.13-3.85a.55.55 0 0 0-.71-.54l-3.25 1.02a1.6 1.6 0 0 1-2.08-1.53l.08-253.52a.55.54 0 0 0-.55-.54h-18.02a1.54 1.49-25.8 0 1-.91-.3l-5.06-3.78a.48.48 0 0 0-.76.37q-.07 2.06-1.7 2.32-7.35 1.15-18.82 1.45c-1.15.03-2.49-.73-3.84-.17a1.61 1.52 34.1 0 1-.74.12c-4.45-.33-11.37-1.8-13.49-.25q-.4.3-.84.06-4.67-2.47-9.35-.01-.51.26-1.02.02l-4.94-2.37a1.68 1.67 52.1 0 0-1.02-.13q-6.5 1.19-13 2.3c-2.95.51-5.39-.44-8.21-1.1q-.52-.13-.74-.62-.77-1.68.05-3.36.27-.56.88-.64l2.11-.28a.53.53 0 0 0 .26-.94Zm19.08-74.15q.09.29.39.23l.57-.11a.49.49 0 0 0 .33-.71q-.35-.67-.93-.39-.59.28-.36.98ZM1598.63 231.2a.22.22 0 0 0-.43.02q-1.66 8.42-.13 16.79c.96 5.31-1.3 9.74-.63 14.96.55 4.28 1.34 6.24.19 10.63a.95.95 0 0 0 .23.89q1.28 1.39-.31 2.55-.47.35-.42.93 1.92 22.61 1.28 45.24c-.11 3.9-2.13 6.17.07 10.36q.28.52-.02 1.03l-1.05 1.78q-.21.36-.09.75c.64 2.2 2.4 10.78.41 13.27q-.3.38-.16.85l.82 2.55q.14.43.06.88c-.41 2.46-.97 7.18-2.19 8.34q-.38.36-.26.86l2.39 10.64q.12.54-.22.98l-.92 1.23q-.25.33-.25.75v14.8a.86.84-22.8 0 1-.25.6l-6.45 6.21a.96.96 0 0 1-1.11.16q-2.59-1.38-4.07.67-.31.43-.82.57-3.55.98-6.71-.67-.51-.27-1.01 0-2.99 1.58-5.67-.41a.66.66 0 0 0-.77-.01l-1.83 1.26a.48.46-60.6 0 1-.26.08q-7.04.03-14.05.01-.91-.01-1.66-.78-.35-.35-.8-.17c-4.43 1.72-10.64 2.01-13.71-2.52a.48.48 0 0 0-.86.16l-.43 1.91a1.65 1.64-89.1 0 1-1.27 1.24q-4 .84-7.48-1.19-.47-.27-.87.08-1.43 1.23-4.33 1.12c-6.04-.24-19.02-1.6-17.69-10.47q.09-.59-.34-.99l-1.26-1.2a.75.74 39.4 0 1-.1-.98l1.05-1.46a.8.77 56.2 0 0 .12-.67q-2.38-9.46-.85-19.08c.09-.55-.5-1.7-.5-2.44q-.07-23.41.03-46.82.01-3.03 1.59-4.18.4-.28.28-.76c-1.56-6.29-3.59-10.79.18-16.89q.29-.46-.12-.83-1.96-1.71-1.96-3.39l-.06-55.44q0-1.79 1.27-2.79.44-.35.44-.92-.04-2.83-1.1-5.43a.66.64-41.8 0 1 .04-.55l1.97-3.44a.61.61 0 0 0-.13-.77q-3.72-3.12-2.03-8a.99.98-86.6 0 1 .71-.64l1.63-.37q.78-.17.44-.9c-1.5-3.2-4.07-5.71-.87-9.17a.64.63-40 0 0 .07-.77q-.72-1.14-1.8-1.97-.43-.34-.44-.88l-.04-3.79a.53.51 77.4 0 1 .3-.49q1.2-.56.85-1.62c-1.24-3.75-2.49-20.65-.25-23.55q.31-.4.05-.84-2.27-3.8-.09-7.75.24-.44-.02-.88c-1.67-2.7-1.04-9.09-.75-13.28q.03-.51.4-.86.72-.71.55-1.82c-.6-4-1.74-8.96-.72-12.68q.13-.47 0-.94a9.05 9.05 0 0 1-.42-2.03q-.04-15.44-.02-30.88.01-2.26 2.35-3.85a.63.62 55.8 0 0 .16-.87c-.98-1.43-3.72-3.65-1.31-5.34q.41-.29.36-.79-1.04-9.83-1.61-19.64-.04-.66-.96-2.59a1.67 1.64-53.8 0 1-.14-.97q1.26-7.81.93-15.73c-.15-3.55-1.56-6.04 2.33-8.37q.44-.26.41-.77c-.19-4.02-2.57-10.72 1.95-12.87a.89.89 0 0 0 .13-1.53c-5.96-4.2 4.34-11.85 7.63-8.94q.38.33.81.06c3.71-2.33 8.05-3.89 11.21-.12a.76.75-26.5 0 0 .76.25l5.3-1.24a.53.52 9.5 0 0 .3-.21q1.11-1.73 2.84-.43a.94.01 36.9 0 0 .72.53q2.29.79 3.94-.74a1.34 1.32 24.4 0 1 .95-.35q1.11.02 1.9.87.38.4.94.4 9.31-.01 18.61.02 2.06 0 2.03 2.36-.01.67.55.31c2.6-1.64 9.91-4.17 12.31-1.67a1 1 0 0 0 .87.29c5.15-.81 6.29-1.52 11.33.74q.51.23 1.01-.03 9.9-5.13 20.57-2.17.51.14 1.02.01l4.98-1.24a1.1 1.1 0 0 1 1.12.37q1.2 1.46 2.45.01.37-.43.93-.44c17.61-.58 18.82 20.68 21.68 32.6q17.75 73.96 35.56 147.91.47 1.95.31 3.26-.06.48.14.91c6.61 14.28 9.42 32.58 12.2 49.07a.27.27 0 0 0 .54 0l4.04-23.11q.14-.78.92-.82l3.85-.21a.49.49 0 0 0 .09-.97l-1.04-.26a1.43 1.43 0 0 1-1.08-1.36q-.11-5.83 1.78-9.93 1.09-2.35 1.3-4.07 1.9-16.09 6.77-31.55.15-.47 1.23-2.31c.73-1.25.47-2.5.74-3.61l33.57-139.71.7-3.85c1.89-10.43 13.11-12.31 21.83-11.82q.54.03.93.41.8.8 1.5.64 5.7-1.25 11.51-1l29.5 1.24q2.78.11 7.06-1.24 1.59-.5 2.81.98.35.44.72.01c1.7-1.96 5.4-.37 7.45-.02 3.28.56 5.73-1.62 8.98-.72 2.27.64 5.29 2.04 7.24.11q.37-.37.89-.38 5.14-.1 9.01 3.16.43.36.89.04l3.92-2.82q.38-.27.85-.31 7.06-.48 11.96 2.6 2.03 1.28 3.11 1.61.46.14.52.62.1.97.32 1.39 2.97 5.68 2.99 13.96.06 27.36.03 54.74c-.01 3.55-1.42 5.48-4.15 7.36a1.1 1.1 0 0 0 .42 1.99l2.71.53a.72.72 0 0 1 .57.52q1.01 3.8-.08 7.58a1.65 1.63-46.5 0 0 .02.97q.96 3.02.08 6.14a.9.9 0 0 1-.82.65l-.91.04a.5.5 0 0 0-.39.76c4.12 6.59 1.21 13.5 1.41 19.7.23 7.16.84 14.65.92 21.43q.41 37.41.17 74.81 0 .09-.35 2.87c-.19 1.55.41 2.8.41 4.2q-.02 6.04-.01 12.08a1.5 1.49 62.1 0 1-.27.89q-1.43 2.08.01 4.4.34.55.05 1.13l-1.08 2.19q-.17.36-.07.74c2.39 8.94 1.52 20.76.82 29.02q-.25 2.84-1.88 5.97a1.33 1.3 52.2 0 0-.11.95c1.33 4.83 4.02 12.6 1.44 17.19q-.25.44.03.85c2.56 3.83.76 14.23-.53 18.16q-.17.5.26.81 1.32.96 1.32 2.07c.02 10.6 1 22.75-.39 33.15-.2 1.5.41 2.76.41 4.12.02 4 .7 9.65-1.45 11.58q-.4.36-.34.89c1.62 13.57-5.45 17.08-17.54 17.23q-26.36.33-52.74.24c-17.11-.06-23.34-3.15-23.42-20.7q-.06-12.31 0-24.62c.01-3.63 1.33-6.53 2.45-9.9a.44.41-49.2 0 0-.01-.27l-.76-1.95q-.17-.46.15-.84c1.48-1.75-1.71-3.6-1.81-5.83q-.18-4.14.05-8.26a.96.94 77.9 0 1 .5-.79q1.2-.64 2.41-.06a.56.56 0 0 0 .76-.72q-.19-.48-.6-.69-.26-.13-.82-.05c-1.77.28-2.34-.88-2.34-2.47V311.1a1.08 1.08 0 0 1 .34-.81q1.29-1.26.05-2.53-.4-.41-.4-.98l.05-77.79a.33.32 52 0 0-.64-.08q-5.18 20.81-10.1 40.05c-.42 1.66-1.53 2.24-1.86 3.68q-2.64 11.49-5.47 22.92c-.28 1.12-.94 1.84-2.12 1.4a.62.62 0 0 0-.68.99l1 1.13q.36.41.25.94c-1.76 8.51-4.38 20.83-10.57 26.79q-.33.31-.44.75l-1.44 5.63a.76.76 0 0 0 0 .3c.82 3.79 1.5 6.95.54 10.86-2.5 10.18-5.37 23.25-10.83 32.68q-.26.44-.2.95c.58 5.53-1.13 10.74-2.48 16.05q-.75 2.93-3.61 2.47a1.07 1.06-66.3 0 0-1.01.4q-2.93 3.72-7.74 1.89a.73.73 0 0 0-.89.31l-.32.53q-.26.44-.72.65-1.48.67-2.21-.61-.33-.59-.84-.14l-.96.83a.7.67 21.7 0 1-.37.15q-1.98.19-2.32-1.73a.49.48-11.1 0 0-.58-.38c-3.88.83-7.47 1.95-11.51 2.02-5.33.09-10.47.6-18.03.19-3.67-.2-7.3.61-11.43-1.41a.83.82 35 0 0-.94.16l-.98.98a1.15 1.14 19.6 0 1-.7.33q-2.36.26-4.66.04c-4.34-.42-7.74.37-12.25-.9q-1.35-.38-2.54.6-.36.3-.83.27c-14.03-.97-16.24-24.52-19.01-34.66q-18.39-67.42-36.42-134.82ZM2194.5 199.43q.54-2.31 3.01-1.41c4.39 1.62 5.68 8.87 5.98 12.87q.04.52-.36.85-.6.48-.48 1.44a.85.78-65.8 0 0 .11.33q4.57 7.15 7.83 15a.59.58-29.2 0 1-.2.69l-56.19 40.35a.09.09 0 0 0 .01.16q.61.25 1.17.01 30.01-12.77 60.47-25.52a.52.51-19.5 0 1 .7.33l4.33 15.16q.46 1.59-1.14 2-.74.19-.97.79-.4 1.05.69.75c2.11-.56 3.49-.81 4.33 1.64q1.91 5.5 1.4 11.34a1.18 1.15 63.9 0 1-.18.55q-.67 1.1-1.96 1.12a.48.47 67 0 0-.32.81l3.55 3.5a.94.89-74 0 1 .27.52q.59 4.02-.19 7.97a1.28 1.28 0 0 0 .04.63l1.13 3.41a.45.45 0 0 0 .86-.03l.82-3.23q.14-.52.63-.75 3.33-1.55 4.41 1.79 7.77 24.1 15.42 48.01a1.86 1.83 48.8 0 1-.08 1.36q-.48 1.05-1.58.91-.53-.06-.99-.35l-1.78-1.11a.57.57 0 0 0-.84.67l2.01 5.81a.52.51 62.4 0 0 .79.25c7.56-5.48 9.68 11.77 9.81 15.53a.75.75 0 0 1-.56.75q-2.14.56-3.72-1.07a.34.34 0 0 0-.56.37l1.93 4.44a.42.42 0 0 0 .8-.1q.51-2.93 3.36-2.22c1.79.46 1.87 2.21 2.34 3.68q3.24 10.03 6.33 20.11c2.53 8.28-7.82 13.04-14.49 12.96q-23.32-.29-60.79-.24c-5.58.01-15.63.53-23.35.05a3.96 3.95 73.2 0 1-2.92-1.57q-2.49-3.33-4.23-7.59c-8.56-20.9-14.34-43.34-19.87-65.21q-.13-.49-.63-.46-9.04.48-17.98.25c-4.19-.11-9.41-3.05-13.18-.83q-.43.26-.93.26l-21.1.28q-.48 0-.93-.19c-1.22-.52-1.99-.02-2.86-.01l-45.94.02q-.19 0-2.92-.38c-1.6-.21-2.62.39-4.06.38q-4.16-.03-8.28 0a.69.69 0 0 0-.67.54q-1.6 7.14-6.28 12.67a1.1 1.07 66.8 0 0-.26.68c-.03 2.07 1.31 10.17-2.73 8.87q-.68-.22-.46.46.74 2.22.46 3.27-5.05 19.02-12.68 37.12a40.27 40.27 0 0 1-5.7 9.65 4.63 4.61-70.5 0 1-3.6 1.73h-9.08a1.02 1-15 0 1-.87-.49q-.95-1.55-.24-3.33a.96.96 0 0 0-1.56-1.05l-3.12 3.03a1.2 1.2 0 0 1-.86.34q-2.14-.07-1.99-2.53a.5.5 0 0 0-.62-.52l-1.34.34a.68.68 0 0 0-.48.86c1.49 5.04-8.62 4.05-10.65 2.55q-.47-.35-.9.05-1.71 1.57-3.19-.25a.91.9 33.1 0 1-.18-.83q.32-1.1-.43-1.86a.48.47 20.1 0 0-.81.37l.23 2.41a.82.82 0 0 1-.82.9l-8.41.01a1.44 1.42 60.7 0 1-.76-.22l-2.31-1.48q-.52-.34-.76.24-.72 1.76-3.15 1.68-15.88-.51-31.75.14c-5.89.25-10.78-5.54-11.58-10.85q-.4-2.71 1.05-6.79 26.08-73.42 52.21-146.82a1.57 1.55-6.6 0 1 .64-.8c1.29-.85.98-2.41 1.32-3.43q2.69-8.1 5.41-16.15.16-.47.61-.65.77-.32.85-.86 1.67-11.25 8.33-20.4.28-.38.23-.86-.75-8.17 4.28-14.49a1.08 1.06 56.7 0 0 .19-.94c-1.07-3.87 4.53-17.85 10.03-16.18q.59.18.81-.39.79-2.08 2.78-3.02.61-.29.14-.77c-2.07-2.1.13-3.8 1.94-4.52a.56.56 0 0 0 .08-1q-3.51-2.08-4.38-6.08a1.54 1.54 0 0 1 1.08-1.81l3.3-.95q.48-.13.46-.63-.09-1.98-1.48-3.31-.42-.4-.39-.98.12-2.88 2.09-5.03.29-.32.37-.75l1.75-10.39q.09-.52.53-.82c1.38-.91 2.14-5.77 3.55-7.74a.97.01-77.8 0 0 .21-.91q.17-.81.63-2.28c5.61-18.19 12.86-41.88 24.34-58.75q.3-.45-.08-.84l-1.14-1.13a1.25 1.25 0 0 1-.34-1.07q.6-3.53 1.28-7.05.1-.47.38-.87l.82-1.13q.27-.37.27-.83.04-3.84 3.49-5.31.63-.27.27-.86-.95-1.55-.55-3.37a1.27 1.24 70.7 0 1 .24-.52l4.1-5.1q.34-.43.2-.96l-.48-1.87a1.34 1.29-43.9 0 1 .03-.76c4.49-12.47 18.63-8.86 29.04-9.15 2.47-.06 8.59-.95 11.51.35a.97.96-77.6 0 1 .57.9q-.11 6.55 6.43 5.93a.48.48 0 0 0 .41-.64l-1.49-4.29a1.72 1.72 0 0 1 1.59-2.28q14.83-.32 30.07-.11 2.11.02 3.44 1.01.37.27.73-.02 1.92-1.55 4.26-.59.45.19.64.64.58 1.46-.72 2.4a.78.78 0 0 0 .53 1.41l1.83-.18q.5-.04.74.39l1.86 3.31a.34.34 0 0 0 .61-.02q1.15-2.48 3.81-2.39.44.01.75.32l1.43 1.44a.34.34 0 0 0 .52-.42q-1.92-2.94-1.19-6.36a.96.96 0 0 1 .94-.76c10.49.03 15.29 13.81 17.64 21.97q3.81 13.19 10.26 29.26 1.48 3.71-2.15 4.42-.57.11-.4.66.42 1.37 2.21.83l1.42-.42q1.6-.48 2.11 1.11l14.25 44.43a1.76 1.76 0 0 1-1.49 2.29q-1.93.2-3.22-1.13a.42.42 0 0 0-.71.37q.47 2.46 2.31 4.05.39.33.54.82c1.47 4.63 3.99 6.15 7.33 8.7q1.08.82 1.66 2.37 4.03 10.72 8.03 21.44.16.44.07.91c-.3 1.49.78 2.2 1.2 3.25q2.15 5.37 3.17 10.79a1.78 1.77 78.6 0 1-1.36 2.06l-2.76.62q-.54.12-.46.66c.82 5.52 4.64 2.33 7.29 4.88 2.43 2.34 1.69 5.67 1.59 8.75a.67.67 0 0 1-.48.63l-2.34.72a.7.7 0 0 0-.46.9l4.05 11.64a.27.27 0 0 0 .52-.03Zm-83.54 38.25q.47-.39.36-1.25a.62.58-71.5 0 0-.17-.37q-2.37-2.47-3.16-5.83a1.76 1.75 79.6 0 1 1.47-2.14q3.28-.46 4.48 2.62a.2.18 1.4 0 0 .12.11l.62.19a.35.35 0 0 0 .42-.51l-4.64-8.36a.87.86 69.5 0 0-.93-.43l-4.81.98a1.67 1.64 16.3 0 0-.84.45c-3.76 3.79-6.9-7.46-7.61-9.64q-11.92-36.6-21.29-70.7-.38-1.36.1-3.07.03-.11-.08-.15l-.24-.08q-.36-.1-.48.26l-30.34 96.44a.74.74 0 0 0 .63.96c2.11.23 9.52.24 8.77 3.67q-.13.56.31.93l2.02 1.7a.59.59 0 0 0 .95-.31l.89-3.68q.14-.54.6-.85c1.98-1.35 4.21.7 5.81 2.48a.97.94-28.2 0 0 .97.28q5.61-1.57 9.87 2.23.34.3.28.75l-.31 2.51q-.06.44.39.44l11.12-.09q.94 0 1.33-.86 3.54-7.82 11.45-8.18c4.47-.21 7.12 2.32 6.24 6.9q-.1.52-.53.82-.53.35-.71.93a.4.39-81.5 0 0 .38.52l7.13-.07a.56.55-3.3 0 0 .55-.61l-.42-4.05a.96.95 4.3 0 0-.73-.84q-1.11-.25-1.67-1.36a3.28 1.16-38.7 0 1 1.7-2.74Zm-101.09 112.08 1.27.29q1.08.25.53-.71-.47-.84-1.4-.86a.51.51 0 0 0-.52.51v.62a.16.15 7.2 0 0 .12.15ZM2539.02 394.77q1.11.68.72 1.83c-1.16 3.46-10.2 5.52-13.19 5.51-5.83-.04-9.84.37-14.8.26q-9.69-.21-19.38-.1c-2.19.02-4.15-.77-6.35-1.08q-.51-.07-.89.28-1.5 1.43-3.43.34a.93.92-44.1 0 0-.89-.01q-1.88 1.01-3.35-.54a1.01 1.01 0 0 0-.98-.27q-10.49 2.76-21.02.02a.95.93 84 0 1-.6-.5q-.86-1.78.03-3.58a1.04 1.04 0 0 1 .78-.57l2.21-.31a.48.48 0 0 0 .23-.85q-2.46-2-2.78-5.14a.54.54 0 0 0-.72-.45l-3.67 1.35q-.48.18-.96-.01c-2.1-.86-2.77-2.33-2.75-4.67.04-4.33-.4-8.54.76-12.76q.92-3.4-.38-6.82c-.53-1.39-.6-2.27.34-3.33q.34-.39.11-.85-2.06-4.13 1.33-7.42a.82.81-31.6 0 0 .21-.84c-1.42-4.37-1.79-9.41 1.37-13.12a.63.63 0 0 0-.38-1.03c-3.44-.55-3.84-4.42-3.35-7.51.7-4.43-1.38-8.5 5.17-9.69a.36.35 64.2 0 0 .2-.59c-4.73-5.3 10.48-7.92 12.93-7.87 11.29.22 22.64-.34 33.97-.16q1.75.03 5.61 1.31a.72.72 0 0 0 .78-.23q1.49-1.81 3.6-.61a1.12 1.1 46.6 0 0 1.03.04q1.97-.96 3.27.61a.93.93 0 0 0 .97.29q10.84-3.13 20.72-.17c2.04.61 2.01 5.62-1.36 4.63a.8.8 0 0 0-.84 1.29l1.79 2.09q.3.35.4.8l.46 2.15a.63.63 0 0 0 .86.45c2.91-1.21 6.64-2.45 7.24 2.24q1.06 8.36-1.18 16.38-.13.48-.01.96l1.2 4.84q.11.46-.14.86l-.76 1.21q-.27.43.04.83c2.02 2.68.39 5.35-1.38 7.57q-.3.39-.1.85c1.65 3.55 1.94 9.88-1.31 12.46a.76.76 0 0 0 .36 1.35c4.16.66 3.86 6.32 3.05 9.22q-.13.49-.03.99 1.2 5.82-4.54 6.88a.65.65 0 0 0-.22 1.19ZM705.53 491.69c-104.54.18-209.08.06-313.61-.16-12.69-.03-28.64 1.17-39.63.74q-8.68-.33-17.37-.3c-62.11.21-124.26.19-186.37-.09-6.65-.03-11.97-.72-19.64 0q-.5.05-.98-.08-1.18-.3-3.61.08c-3.6.56-6.94-1.13-10.8.12a1.87 1.82 41.4 0 1-.98.05c-4.54-1-8.91-.06-13.11-.35q-5.5-.38-10.99.13c-3.34.31-5.85-.99-9-.97q-10.32.08-20.63.5c-7.34.3-15-.48-21.9-.1-4.14.23-8.29.78-12.21.73q-9.43-.13-18.74-1.54c-3.6-.55-3.39-7.86-3.34-9.95q.29-13.71.12-27.42c-.04-2.76 1.07-5.59.71-8.74q-.06-.58.52-.58 24.69-.02 49.33-.01c3.81.01 8.33-1.3 11.7-1.11q20.14 1.09 25.81 1.09 108.96.04 217.91.01.12 0 3.01.35c1.37.16 2.94-.37 4.12-.37q274.83.19 549.65-.48c46.17-.11 90.58.51 138.61.52 271.27.02 542.56-.55 813.83.05q9.74.02 35.91.85c.81.03 1.59.58 2.59.06a1.96 1.91 30.5 0 1 .9-.22h323.59c9.31 0 19.92-.65 29.26-.67 200.09-.44 401.93.13 602.92-.12q.5 0 .95.2.85.38 2.19.37 148.81-.51 378.59-.21.61 0 1.08.39 1.18.97 2.25-.18a.84.82-68.8 0 1 .62-.28h24.45a.6.59 4.2 0 1 .59.68c-.44 2.99.66 5.79.66 8.42q.02 15.64.01 31.28c-.01 1.9-.91 3.76-.74 5.9q.04.52-.47.57-11.16 1.17-22.35 1.34c-4.42.07-9.57-1.23-14.44-.93-13.32.83-25.42-.24-38.24-.02-3.33.06-7.12 1.11-11.75.57-5.71-.68-14.88.98-24.67-.05-1.74-.18-3.23.5-4.8.5q-119.06-.03-238.12.01-2.99 0-16.33-.29c-7.28-.16-14.57.1-21.78-.08-13.66-.33-26.31.63-40.86.17q-8.7-.27-15.53-.28c-127.01-.31-253.23.64-379.67.4-1.72-.01-3.3-.37-4.77-.33-18.17.58-36.68.18-54.41.36-34.55.36-69.08.11-103.63.22-132.14.39-264.3-.33-396.44-.16-5.92 0-12.7-.53-19-.38-14.52.32-30.33-.04-43.56.07q-35.06.27-70.12-.04c-1.52-.01-4.83.49-7.28.1q-1.97-.31-3.12-.27c-13.64.41-30.99.25-40.89.31q-51.04.28-102.09.1c-55.4-.19-110.79.14-166.2-.19a.9.84-57.5 0 0-.42.11l-.24.12q-.08.03-.17.03-153.72-.25-307.43-.45c-13.99-.01-28.9 1.73-42.78-.05-1.87-.24-3.63.5-5.28.5q-36.48.04-72.97-.04l-7.01-.3c-3.38-.15-7.32.34-10.26.34q-103.05.06-206.1-.24c-3.62-.01-11.39.41-17.12.03q-5.25-.34-7.93-.34ZM3205.44 594.81c-2.32-1.03-2.44-3.61-2.72-6.53q-2.42-25.26-4.7-50.53c-.92-10.28 16.27-7.44 21.49-6.3 1.85.4 2.38 2.29 2.42 4.11q.67 30.1-1.93 55.44c-.63 6.14-10.92 5.44-14.56 3.81ZM1556.02 543.38l-4.09-.19a.68.68 0 0 1-.65-.61c-1.6-13.92 23.06-13.3 20.3.07q-.11.54-.66.59-1.25.1-2.98-.13-.67-.09-.88.54a.59.59 0 0 0 .61.77l2.76-.23q.69-.05.57.62c-.95 5.23-11.24 5.48-14.51 4.4q-2.37-.79-4.1-3.99-.31-.57.3-.8 1.25-.49 2.51.16a.56.55-53.5 0 0 .65-.1l.43-.43q.62-.63-.26-.67ZM2920.22 543.38l-2.76-.21a2.06 2.05 89.3 0 1-1.89-1.85c-1.16-11.88 23.11-12.29 20.52 1.42q-.1.51-.62.51h-3.72a.5.5 0 0 0-.5.51v.25a.35.35 0 0 0 .37.36l3.57-.16a.44.44 0 0 1 .41.65c-3.49 6.32-14.42 6.73-18.84.85a.91.91 0 0 1 .73-1.46h2.69a.44.43-42.6 0 0 .04-.87ZM1086.91 568.82l.52.28a.58.58 0 0 1 .29.64l-.55 2.37a.59.58-77.6 0 0 .45.71q2.73.56 3.78 3.09a1.34 1.33-8.8 0 1-1.35 1.84q-2.77-.23-4.89 1.48a.85.85 0 0 0 .43 1.5c2.36.3 4.25-1.44 6.17-.87a2.03 2.02-86.5 0 1 1.41 1.6c1.94 11.41.49 29.77-9.61 36.6q-1.28.86-2.81 2.27c-9.58 8.87-33.7 11.98-45.44 7.89-5.77-2.01-13.7-6-18.87-1.3a1.35 1.34-67.8 0 1-.82.35q-3.48.27-6.9.25c-6.19-.04-9.02.06-9.3-6.78q-1.61-38.85-1.5-77.74c.01-3.61-.24-10.23 5.4-10.25q6.07-.02 11.94.01a3.76 3.76 0 0 1 3.75 3.79q-.05 7.58.04 16.37.04 2.93 3.37 4.04.43.14.86-.01c21.24-7.66 46.18-9.12 62.31 9.67q.55.64.77 1.49.12.48.55.71Zm-60.51 37.04c11.93 9.84 34.02 8.12 42.76-4.86 5.21-7.74 3.92-18.76-2.88-25.28-8.44-8.09-19.04-7.42-29.98-5.61-3.8.62-7.83 3.8-10.23 5.98-8.94 8.13-9.25 21.87.33 29.77ZM2446.4 555.98a2.75 2.75 0 0 0 3.11.87c20.36-7.51 45.33-8.84 61.4 8.91 1.06 1.18 1.27 2.41 2.51 3.54a.4.4 0 0 1 .13.37l-.42 2.5a.68.68 0 0 0 .56.79q3.17.51 3.77 3.53a1.07 1.07 0 0 1-1.15 1.27q-2.64-.24-4.84 1.13a1.02 1.02 0 0 0 .53 1.89c2.38.01 6.48-3.07 7.15 1.24 1.7 10.96.69 30.26-10.52 36.59-1.36.77-1.72 1.86-2.7 2.54-10.91 7.55-24.43 9.27-37.37 8.51-4.28-.26-8.34-1.95-11.76-2.89-5.29-1.44-9.52-4.3-14.47.22a1.39 1.37-66.7 0 1-.86.35q-2.56.12-10.2.13c-5.03.01-5.7-2.7-5.89-7.19q-1.67-38.19-1.29-81.09.04-3.87 2.49-6.07a1.41 1.39 23.3 0 1 .95-.37h13.44a4.03 4.03 0 0 1 4.03 4.02c0 3.96-1.12 16.03 1.4 19.21Zm6.01 49.86c15.38 12.66 49.2 5.62 45.7-19.02-1.64-11.55-13.24-18.05-24.37-18q-4.92.02-11.49 1.25c-3.8.71-7.2 3.51-9.77 5.65-9.59 7.98-9.72 22.16-.07 30.12ZM3183.01 615.95l.88.34q.63.24.63.91l-.05 5.49a.69.69 0 0 1-.58.67l-4 .67a.95.95 0 0 0-.74 1.25l1.11 3.15a.58.58 0 0 1-.53.78c-4.49.1-10.81.82-14.89-.92-4.51-1.93-11.5 1.24-16.07 2.46q-17.51 4.68-34.59-1.01a.52.52 0 0 1-.01-.98l1.82-.65a.38.38 0 0 0 .26-.42l-.04-.29a.63.62 88.7 0 0-.55-.54c-3.43-.36-7.46.24-10.41-1.69q-4.17-2.73-7.7-6.21a.47.47 0 0 1 .26-.8l1.48-.22a.49.49 0 0 0 .03-.96l-3.87-.81a1.04 1 74.8 0 1-.57-.34q-3.91-4.61-5.32-10.54-.1-.42.04-.83l.24-.74q.11-.32-.14-.54-1.62-1.43-1.74-3.15c-1.69-25.13 12.28-41.56 35.85-45.82 11.91-2.16 22.93.35 34.36 3.91 5.12 1.6 5.28-6.29 5.04-9.27q-.45-5.68.28-11.34c.29-2.3 1.49-3.52 3.94-3.52l12.47.01c2.53 0 3.97 1.42 4.34 3.76q1.38 8.58.84 18.4-.03.55-.55.71l-.64.2a.45.45 0 0 0-.21.72c2.04 2.4 2.55 8.73.01 11.23q-.4.39 0 .79l.43.44q.38.38.38.91l-.03 30.24q0 .42-.29.74l-.82.92a.39.39 0 0 0 .3.65l.76-.03q.76-.02.58.72-.95 4.02-.41 8.84.22 1.96-1.83 1.79a.23.22-12.7 0 0-.22.34l.22.37q.09.15.25.21Zm-70.5-13.45c10.5 15.22 29.51 12.06 43.95 5.92q.49-.21.67-.71.82-2.27 3.07-2.87.61-.17.34-.74l-.37-.77a.6.6 0 0 1 .04-.58c6.4-9.65 2.84-23.55-8.02-27.97-14.11-5.75-39.14-3.45-41.18 15.98q-.21 1.9.11 7.41.15 2.53 1.39 4.33ZM0 548.66v-10.21q1.98-3.43 4.25-3.5 28.6-.82 91.11-.39c6.88.04 3.11 9.58 4.44 12.45q.2.44.08.92c-.98 3.67-3.52 4.77-7.3 4.79q-11.22.07-22.46.02c-4.25-.02-6.65 1.54-7.31 5.75a.78.77-4.2 0 1-.55.63q-1.32.38-.34 1.45.37.4.37.95-.07 12.4-.37 24.73-.04 1.63-1.37 1.8a.41.41 0 0 0-.17.75l.96.64q.4.26.4.74l.02 4.12q.01.31-.21.53l-.23.22q-.27.27-.09.61 1.15 2.19 1.09 5.06-.03 1.2-1.17 1.36a.44.43-37.7 0 0-.11.83l.89.37q.53.22.54.8.1 13.87.01 19.67c-.06 3.82-5.99 4.53-8.73 4.57-4.13.05-12.97.8-14.8-2.27-1.83-3.07-.68-19.17-.61-23.54a.48.47 76.1 0 1 .23-.39l.41-.24q.29-.17.12-.46-1.24-2.01-.84-4.37.09-.5.57-.69l1-.38a.47.47 0 0 0-.08-.9l-.94-.18q-.4-.07-.47-.47c-.31-1.72-1.14-5.43 1.13-6.07q.28-.08.28-.37v-.44q0-.41-.39-.29-1.26.38-1.29-.82-.3-14.1-.63-28.19c-.08-3.53-3.3-4.85-6.19-4.76q-8.89.27-17.69-.95a1.07 1.06-60.9 0 0-.82.24l-.65.53a1.09 1.07 28.4 0 1-.83.24c-4.81-.56-9.46 1.23-11.26-4.89ZM2891.48 538.36q.21-1.42-.41-2.66a.7.69-16 0 1 .56-1c4.15-.39 13.13-1.68 14.16 3.64 1.12 5.73.84 13.18-6.95 12.49a.76.75-83.6 0 0-.81.65l-.37 2.8a.83.83 0 0 0 .53.89c3.96 1.49 9.31 3.35 7.07 8.93q-.19.48.08.91 1.59 2.57-.84 4.63-.32.26-.25.68.18.97-.74 1.5-.41.23-.88.21c-5.95-.26-7.8 3.12-7.99 8.71q-.51 15.24-.72 30.43c-.03 2.36-1.68 1.66-2.5 2.74q-.15.19-.16.41-.04.57.51.44 1-.25 1.49.77.22.46.23.96c.05 3.47 1.6 12.68-3.1 13.48-3.7.62-15.14 1.39-17.51-1.53q-.35-.43-.35-.98l-.09-11.27q-.01-.55.54-.62l1.08-.15a.78.76-3.2 0 0 .67-.73l.03-.82a.7.69 7.6 0 0-.54-.7l-1.13-.27q-.68-.16-.66-.86.52-16.25.18-32.48c-.1-4.39-1.59-6.78-5.86-7.66a.36.36 0 0 1 0-.7l2-.45a.58.57 58 0 0 .23-1.01q-1.99-1.59-4.74-.93a1.79 1.79 0 0 1-2.2-1.61c-.23-3.41-.44-8.88 3.56-10.39q4.63-1.76 8.48-4.9.4-.32.23-.8c-2.34-6.55 8.82-17.17 15.14-15.77a.74.74 0 0 1 .57.83q-.19 1.39.65 2.41.65.8.81-.22ZM859.98 556.33a.47.47 0 0 0 .09-.9q-2.69-.97-4.7-3.02a.54.49-11.7 0 0-.25-.15l-4.97-1.42a.68.67 13.2 0 1-.48-.77c1.4-7.2-.56-12.16 8.86-14.04q7.18-1.42 11.28-1.36a.99.97-12.1 0 1 .87.55q1.14 2.38.8 5.02-.06.49-.54.61l-3.2.79a.82.82 0 0 0 .2 1.61h3q.46 0 .53.46c.49 3.46-.49 7.14 4.22 7.88q3.41.53 6.31 1.05a2.43 2.42 5.1 0 1 2 2.38q.02 5.11-.1 10.49c-.1 4.78-12-.72-12.59 10.07q-.69 12.58-1.11 25.14-.02.65-.66.81-1.81.47-1.22 2.57.16.56.72.72 3.03.83 4.44 3.65a1.54 1.52-3.9 0 0 .86.74q2.46.83 4.97 1.11c6.02.69 4.09 6.96 3.63 11.66-.43 4.38-2.38 6.2-6.75 6.95-9.19 1.59-21.55-1.54-25.44-10.85q-1.22-2.95-1.23-8.45-.04-17.12-.01-34.24c0-1.95 1.2-3.91.21-6.22q-.16-.37-.04-.75l.34-1.16q.28-.93-.65-.63-3.62 1.16-7.42.73c-5.35-.61-2.83-19.73 3.43-13.55a1.02 1.01 59.8 0 0 .96.26l2.64-.67a.55.55 0 0 1 .4 1.02l-2.9 1.61a.89.88 82.6 0 0-.45.59q-.79 3.68-4.59 4.28a.5.5 0 0 0-.4.66c1.47 4.26 7.5.39 10.5 3.55a.56.55 37.2 0 0 .89-.12c1.83-3.35-.97-5.4-3.29-7.18a.71.7-57.4 0 1-.19-.89c1.72-3.32 7.58-.08 11.03-.59ZM1255.5 555.51q-2.63-1.17-4.8-3.06-.36-.32-.83-.44l-3.81-.97a1.2 1.19-77.3 0 1-.87-1.38q.71-3.8.89-7.35c.35-6.93 14.84-7.84 19.55-7.45a.91.9 87.6 0 1 .83.77l.67 4.36q.12.79-.66.94l-3.15.6a.87.87 0 0 0 .16 1.72h2.97q.45 0 .5.45.3 2.71.56 5.28c.52 5.27 12.06.18 12.04 7.25q0 4.18-.11 9.53a1.99 1.98-1.1 0 1-1.88 1.95c-6.21.32-10.59 1.09-10.9 8.53l-1.07 24.62q-.03.51-.52.64-2.03.53-1.32 2.55.16.45.59.66l2.97 1.49a.77.74 87.8 0 1 .3.29c2.87 5.38 7.71 2 10.27 5.15 1.73 2.13.76 9.34.29 11.78-.59 3.02-2.57 4.67-5.64 5.3-12.82 2.65-27.49-3-27.52-18.17q-.03-17.94 0-35.88c0-1.79 1.21-3.33.15-5.37a.71.7 37.7 0 1-.06-.46l.39-1.66q.22-.94-.68-.6-4.1 1.5-8.07.58c-2.94-.69-2.27-8.51-1.85-10.68.51-2.62 3.48-5.47 5.75-2.67q.36.43.9.29l2.79-.73a.5.5 0 0 1 .52.8q-1.02 1.21-2.63 1.5a.81.8-88.9 0 0-.66.64q-.76 3.87-4.68 4.56a.53.52 77.7 0 0-.41.65c.7 2.8 5.32 2.38 7.94 2.15q.58-.05 1.07.28l1.6 1.08a.6.6 0 0 0 .88-.24c1.83-3.78-1.68-5.03-3.56-7.31q-.3-.37-.02-.76c2.13-2.99 7.53.06 10.98-.3a.48.47 53.9 0 0 .14-.91ZM1710.77 555.38l-4.93-3.41q-.45-.31-.99-.29-1.94.07-3.41-1.02-.42-.31-.36-.83l1.11-8.95a1.43 1.39-23 0 1 .28-.67c3.81-4.89 13.38-5.82 19.13-5.35a.83.83 0 0 1 .76.72l.56 4.36q.11.9-.79 1.06l-3.04.51a.71.71 0 0 0-.59.7v.54a.5.5 0 0 0 .5.5h3.25a.69.69 0 0 1 .69.64c.34 4.29-.58 6.91 4.81 7.82q2.67.46 5.15.8a2.74 2.73-86 0 1 2.35 2.71v10.56a1.82 1.82 0 0 1-1.61 1.81c-7.35.91-10.82 1.1-11.15 9.68q-.44 11.65-1.04 23.28-.02.41-.21.72-.34.55-.54.56a1.6 1.55-40.2 0 0-.31 3.12q2.9.56 4.19 3.25a1.63 1.61-89.6 0 0 .74.76q2.32 1.13 5.43 1.27c5.88.25 4.02 9.76 3.28 13.27-.73 3.46-2.95 4.8-6.41 5.4-12.18 2.1-26.57-3.17-26.6-17.68-.03-13.11-.57-26.59.26-39.66q.15-2.24-.25-4.51-.09-.51-.59-.35-4.06 1.33-8.41.35-.49-.11-.67-.59-1.67-4.52-.38-10.04c.6-2.61 2.91-5.52 5.48-2.6a.96.95 62 0 0 .96.3l2.75-.72a.54.53 12.6 0 1 .55.86q-.87 1.03-2.21 1.16a.92.91 9.5 0 0-.75.53l-1.38 3.13a.56.48-88 0 1-.24.26l-3.47 1.8q-.47.24-.25.71c1.1 2.47 5.07 2.01 8.05 1.83q.51-.03.94.26l1.45.98q.45.3.8-.12c2.17-2.61-.99-5.16-3.28-7.22a.67.65 39.2 0 1-.1-.87c1.99-2.84 6.97-.26 10.1-.15a.65.65 0 0 0 .39-1.18ZM2656.97 544.56l2.18-.36a.57.57 0 0 1 .65.41c.82 2.97-.44 6.61 4.12 7.11q3.32.37 6.34.91a2.41 2.41 0 0 1 1.99 2.37v10.76a1.91 1.9-2.7 0 1-1.73 1.89c-5.48.5-10.57.81-10.93 7.83q-.64 12.52-1.11 25.04-.02.52-.46.81l-.99.67a1.64 1.63-55 0 0 .52 2.95q2.78.67 4.03 3.26a1.66 1.66 0 0 0 .76.76c3.24 1.58 9.05.21 9.34 5.27q.27 4.77-.74 9.44c-1.99 9.21-19.5 5.14-24.51 2.43-7.55-4.08-8.64-10.35-8.67-19.06-.05-11.67-.8-24.2.53-35.76q.24-2.03-.31-4.16-.13-.5-.63-.36-3.65 1.06-7.37.49c-4.86-.74-2.77-19.11 3.47-13.61q.35.31.82.33 2.14.09 3.42-1.47.33-.4.37-.91.37-4.52.92-9.01c.89-7.25 13.5-8.08 18.94-7.81a1.73 1.72-1.1 0 1 1.64 1.57l.31 3.67q.05.52-.46.68l-5.37 1.67a.58.58 0 0 0 .24 1.13q1.13-.13 1.91.77.31.37.78.29ZM2696.54 556.3a.32.32 0 0 0 .1-.58l-5.46-3.67q-.39-.26-.86-.3-1.92-.19-3.58-1.1-.5-.28-.4-.84c.67-3.72.37-7.6 2.33-10.86a1.84 1.73.3 0 1 .73-.68q7.66-3.9 16.37-3.49a2.17 2.16 89.6 0 1 2.06 2.03l.69 11.82a2.97 2.97 0 0 0 2.51 2.76l7.4 1.18a2.46 2.46 0 0 1 2.07 2.43v10.78a1.94 1.94 0 0 1-1.88 1.94c-4.4.14-10.23.98-10.56 6.7q-.76 13.03-1.13 26.08-.02 1.02-1.31 1.08a.73.71-89.5 0 0-.68.68l-.11 1.72q-.05.69.63.85 3.2.75 4.61 3.61.24.49.76.69 2.62.98 5.38 1.24c5.64.54 3.77 8.27 3.27 12.12-.58 4.47-3.14 5.95-7.47 6.56-11.83 1.67-25.71-3.78-25.74-17.74q-.03-18.16-.03-36.32c0-1.58.82-3.68.18-5.67q-.14-.43-.08-.87l.18-1.33q.1-.71-.58-.47-3.86 1.34-7.96.49a2.23 2.22 88.7 0 1-1.71-1.64q-1.13-4.52-.09-9.26c.59-2.67 3.42-5.06 5.69-2.43q.36.41.9.28l2.8-.68a.35.35 0 0 1 .44.36l-.01.32q.01.41-.36.59l-2.42 1.21q-.38.19-.48.61-.89 3.78-4.82 4.43a.5.49-17 0 0-.37.69c1.21 2.76 5.44 2.22 8.43 2.09q.56-.02.99.32l1.32 1.06a.57.57 0 0 0 .87-.22c1.45-3.27-1.07-5.07-3.11-6.92a1.51 1.51 0 0 1 .99-2.63c3.52-.06 6.35 1.77 9.5.98ZM1105.2 576.34q-.17-.13-.4-.09a.55.54-16.5 0 1-.56-.3q-.89-1.85.72-2.78.66-.38-.03-.7-.81-.38-.87-1.69-.03-.62.59-.7l.86-.12a.31.31 0 0 0 .26-.39l-.11-.31q-.13-.32-.42-.14-.66.42-1.23-.23a.58.58 0 0 1 .08-.85q.75-.59.21-1.47-.28-.44-.28-.97-.07-17.67.03-24.08c.12-7.86 10.76-5.51 15.75-5.52a3.94 3.94 0 0 1 3.95 3.94v24.15q0 .64-.61.83l-.56.18a.46.45 35.6 0 0 .15.89q1.77-.03.67 2.29-.11.23-.26.44-.57.82.32 1.8a.5.5 0 0 1-.14.77l-1.04.54a.36.36 0 0 0 .17.67h.54q.43 0 .58.4.88 2.36-1.34 3.05a.36.36 0 0 0 .04.69l.89.18a.74.73 5.8 0 1 .59.72V623c0 5.76-12.54 4.32-15.75 3.51-3.49-.87-4-3.08-4-6.52v-41.95q0-.62.57-.83l.54-.21q.63-.24.09-.66ZM2337.11 569.48q-.39-.82-.42-1.72-.62-15.64.06-26.75.18-2.95 2.86-4.74a1.58 1.57-61.8 0 1 .88-.27h11.99a3.78 3.77-89.9 0 1 3.77 3.79q-.1 40.3.03 81.69c.01 3.85-1.38 5.04-4.98 5.57-4.24.62-13.74.78-14.65-4.37q-.06-.32-.09-4.23-.16-20.22.01-40.42 0-.54.53-.69l.44-.13a.45.44-32.9 0 0 .17-.77l-1.1-.91q-.35-.3-.08-.67 1.19-1.61.38-3.48-.21-.48.02-.96l.18-.38q.13-.28 0-.56ZM2730.7 576.51l-1.32-.84a.5.49 9.2 0 1-.2-.27q-.42-1.75 1.19-2.23 1.13-.33.06-.84l-.86-.41q-.39-.19-.33-.62l.09-.63a.56.56 0 0 1 .39-.47l.82-.26a.32.31-47.1 0 0-.02-.61l-1-.23a.61.61 0 0 1-.18-1.11q.73-.44.21-1.09a1.42 1.39-64.6 0 1-.3-.87v-25.12a4.91 4.91 0 0 1 4.91-4.91h10.59a4.25 4.25 0 0 1 4.25 4.25v24.04a.69.68 86.2 0 1-.59.68l-.52.07a.32.32 0 0 0-.08.62c1.79.74 1.37 2.16.31 3.36a.59.58-54.7 0 0 .15.9q.71.4.36 1.18a.69.68-75.4 0 1-.68.4q-.59-.05-.73.62a.32.32 0 0 0 .41.38l.62-.2a.44.44 0 0 1 .57.41l.07 2.5q.02.77-.72.57-.71-.18-.92.47-.25.78.52.49.59-.22.96.18.26.28.26.86l.03 43.72c.01 8.99-19.75 7.14-19.76.43q-.02-21.97-.01-43.93 0-.93 1.17-.74a.41.41 0 0 0 .28-.75ZM3077.15 565.78q1.42 1.78-.36 3.46a.51.51 0 0 0 .09.81q1.06.63.16 1.52-.33.32-.07.7 1.63 2.41-.62 3.91a.31.31 0 0 0 .17.57h.46q.58 0 .59.58.45 22.36-.07 44.69c-.17 7.29-11.74 5.56-15.92 4.39-3.2-.89-3.59-3.14-3.59-6.3l.02-39.9c0-.71.44-1.96.42-2.53q-.63-18.08-.31-36.17c.13-7.88 10.39-5.54 15.36-5.5a4.31 4.3.3 0 1 4.27 4.3v23.87a.89.86-23.1 0 1-.26.62l-.3.3q-.32.32-.04.68ZM1480.06 597.46q-1.92.66-.82 1.48.39.29.89.31c3.64.09 5.82-.54 7.79 3.19a1.39 1.36-53.9 0 1 .14.96c-1.99 9.13-10.8 14.84-17.34 18.76-15.36 9.22-33.46 5.92-49.32.34a3.23 3.23 0 0 0-4.3 2.91l-.73 17.38a4.13 4.12-88.8 0 1-4.12 3.96h-11.42c-3.19.01-5.48-1.9-5.68-4.94q-.55-8.5-.13-19.94.49-13.52.48-19.89-.02-11.19.01-22.39 0-.58.58-.57l3.51.06a.66.66 0 0 0 .68-.68q-.02-.5-.59-.77-.31-.16-.91-.09-1.11.13-2.19-.09-.59-.13-.59-.74v-18.24a.49.49 0 0 1 .93-.23q.6 1.14 1.6.62.54-.28.99-1.13.77-1.43 1.52-2.92a1.37 1.37 0 0 1 .67-.64c5.18-2.34 11-4.26 15.68-.14a2.72 2.71-32.3 0 0 2.56.57c12.76-3.72 25.42-6.76 38.66-4.1 21.91 4.4 34.82 20.86 32.25 44.13a2.63 2.62-88.1 0 1-2.49 2.33l-7.49.34q-.42.02-.82.16Zm-56.2 5.45c8.86 6.84 26.46 6.88 35.72 1.61 10.04-5.71 11.98-18.99 5.5-28.83-.36-.55-.28-.9-.35-1.51q-.06-.52-.56-.69c-3.49-1.13-6.41-3.69-9.41-4.7-9.98-3.35-22.99-3.5-31.4 3.92a1.35 1.32 22.7 0 1-.88.35q-1.24.03-.96 1.15a.97.94-28.6 0 1-.29.94q-1.62 1.48-1.98 2.37c-3.46 8.49-3.28 19.31 4.61 25.39ZM110.55 558.93c3.95.04 3.12-3.91 3.64-6.43a1.19 1.18 79.7 0 1 .53-.77c2.02-1.27 4.45-.54 6.23-.41 5.91.42 5.86 6.5 5.43 11.66q-.03.42-.31.74l-1.35 1.56a.67.67 0 0 0 .06.93q2.28 2.04 2.29 3.79c.08 18.84-3.59 40.46 21.38 40.06 8.57-.14 24.13-2.26 24.41-13.88q.39-16.09.89-32.19c.1-3.42-.47-6.57 1.53-9.69a2.8 2.8 0 0 1 2.34-1.29c3.03-.02 13.37-.82 15.55.95 1.98 1.62 1.08 3.38 1.09 5.34q.12 29.26-.65 58.51-.13 4.99-2.21 7.85a1.29 1.27 16.2 0 1-.94.51c-5.81.33-11.76 2.08-15.5-3.87-2.19-3.49-7.83-.23-10.59.87q-14.7 5.86-30.36 3.32c-19.28-3.13-26.47-18.51-28.59-36a.75.75 0 0 1 .86-.83l3.19.49q.58.09.9-.39c1.92-2.84-2.58-3.78-4.35-4.51q-.5-.2-.5-.73l-.06-9.85q0-.65.58-.38 2.71 1.27 5.73 1.2a.49.49 0 0 0 .32-.85q-2.66-2.42-6.32-2.34a.51.5 1.5 0 1-.52-.54c.29-4.34-.5-6.85 2.64-10.27a1.19 1.18-68.7 0 0-.87-1.99h-.5q-.43 0-.44-.43-.09-5.35 4.3-8.01a1.56 1.56 0 0 1 2.36 1.46q-.27 3.47-2.35 6.08a.2.2 0 0 0 .16.33ZM260.57 552.21a2.03 2.02 12.6 0 1 1.07 1.68q.38 7.01.17 14.37c-.14 4.86-13.6 4.49-17.22 6.16-6.42 2.94-11.58 8.74-11.64 16.14q-.11 15.03-.24 30c-.03 2.97-1.19 3.99-3.95 4.47-4.85.83-15.92 2.16-16.29-5.27q-1.49-29.54-2.02-54.26c-.06-2.73-.14-7.55 1.69-9.68 2.04-2.36 4.78-1.69 7.33-1.84 5.21-.3 10.11-.29 12.13 5.52a1.34 1.34 0 0 0 1.99.68c6.99-4.5 18.52-12.51 26.98-7.97ZM602.68 571.72c1.43.39 4.14-.07 5.04.63q.78.6.49 1.88a.86.85 27.7 0 0 .25.8q2.71 2.6 2.34 6.38-.05.55.15 1.05c2.48 6.23-.08 21.14-5.28 25.67q-.42.37-.42.92v.45q0 .44-.26.8c-6.61 9.22-16.5 13.82-27.52 15.51-14.41 2.22-27.11 2.41-40.68-2.51a1.54 1.52 81.7 0 1-.73-.55q-.86-1.17-1.5-1.33c-13.68-3.63-21.26-18.28-21.36-31.62a1.79 1.77 59.8 0 1 .24-.93q.12-.21.21-.42.08-.18.06-.4c-.52-3.93 2.4-18.02 7.17-16.96a.42.42 0 0 0 .33-.75l-1.06-.72q-.33-.23-.13-.58c.97-1.73 2.76-2.64 3.88-3.88q10.27-11.34 25.92-11.16.48 0 .63-.46.42-1.27 2.55-1.56 7.12-.98 11.56-.89c2.65.06 5.54 1.42 8.69 1.38 13.05-.14 25.27 7.59 33.16 17.45q.69.85-.41.91l-3 .15q-.11 0-.19.08l-.24.25a.25.25 0 0 0 .11.41Zm-21.6.33.25-.25a.45.45 0 0 0-.29-.76c-1.46-.11-3.26-.12-4.68-.55q-10.78-3.24-21.97-2.14-1.57.15-3.99 1.32-1.85.89-3.94 1.12-.5.06-.82.45-2.43 3.02-5.54 5.37c-3.17 2.39-3.32 6.57-5.34 9.64q-.26.4-.17.88.41 2.08.64 4.24c1.84 16.85 21.33 19.84 34.54 17.83 11.46-1.75 19.04-7.22 19.92-19.21q.22-3.1.48-6.23.04-.49-.32-.82c-3.38-3.04-4.96-7.06-8.74-10.15q-.43-.35-.03-.74ZM630.66 575.67a.7.7 0 0 0 .63-1.19q-2.53-2.34-6-1.96a.5.49-2.6 0 1-.55-.5c.11-3.65-.48-7.18 2.17-9.99a1.59 1.18-62.6 0 0-.41-2.53h-.47q-.41 0-.43-.4-.32-6.04 5.01-8.17a1.15 1.15 0 0 1 1.57 1.04q.08 3.6-2.24 6.28a.45.44-74 0 0 .4.73q2.32-.35 2.95-2.69a1.96 1.87-43.6 0 0 .04-.82c-.65-3.84 1.87-4.89 5.1-4.34 8.36 1.41 7.59 4.51 7.6 11.85a.95.94 69.7 0 1-.32.71l-1.57 1.38q-.46.4-.03.83 2.2 2.16 2.36 4.35c.73 10.39-3.52 34.24 11.78 38.74 8.8 2.59 28.06 1.51 33.01-8.36q1.02-2.02 1.13-5.94.54-18.47.96-37.45a4.34 4.33.6 0 1 4.34-4.24h12.47a3.56 3.56 0 0 1 3.56 3.6l-.59 64.8a4.86 4.85-1.7 0 1-4.52 4.8c-7 .5-10.15 1.65-14.98-4.78q-.29-.39-.76-.5-2.15-.49-2.88-.19c-31.18 12.71-60.44 8.73-65.1-30.24a.81.8-87 0 1 .97-.88l2.51.56a1.72 1.72 0 0 0 1.05-3.25l-3.91-1.68q-.48-.21-.48-.73l-.09-9.72a.35.35 0 0 1 .42-.34l5.3 1.22ZM752.23 621.49c-.11 5.33-19.63 6.48-20.09-1q-1.46-23.99-2.19-55.49c-.21-9.17.87-11.12 10.26-11.02 6.54.06 7.52.14 10.91 5.39a1.71 1.7 56.8 0 0 2.38.5c7.21-4.77 13.44-8.93 22.48-8.8 3.4.05 5.26 1.29 5.27 4.96v11.74a4.11 4.11 0 0 1-3.49 4.05c-5.55.84-11.4.98-15.9 3.71-6.01 3.64-9.73 9.11-9.66 16.34q.2 21.41.03 29.62ZM1148.26 611.89q-4.77-.04-6.74-4.12c-1.4-2.9-6.47-17.12-1.97-18.7a.48.47 54.8 0 0 .14-.82l-1.56-1.23q-.42-.33-.4-.86c.07-2.32.25-3.58 1.25-5.98.49-1.19.16-2.41.46-3.53q.97-3.55 3.5-6.53a1.57 1.56-54 0 1 2.01-.32q.84.52 1.64-.02a.46.46 0 0 0-.25-.84q-1.34.01-1.64-1.14-.15-.56.23-.99c12.89-14.8 33.26-17.22 51.63-15.37 12.97 1.3 22.72 5.94 30.07 16.3a.62.62 0 0 1-.31.95l-1.41.46a.49.49 0 0 0 .09.95l2.56.3a.56.53-19.6 0 1 .31.14q1.67 1.37 2.03 3.56.12.71-.59.85l-.84.17a.43.43 0 0 0 .07.85l1.51.04q.59.02.75.58 2.48 8.49 1.93 14.32c-.48 5.1-9.35 4.81-12.86 4.64q-.52-.02-.64-.53l-.73-3.13a.87.87 0 0 0-1.2-.59q-2.71 1.2-5.7.9a.9.89 17.9 0 0-.87.44l-.29.47q-.36.62.35.73 2.26.34 4.51.5.93.07 1.22.67.25.52-.32.51-24.42-.04-48.81-.02c-3.34 0-5.43 1.14-4.92 4.79.77 5.47 5.74 7.78 10.88 10.54a.46.46 0 0 1-.31.86l-1.17-.23q-.44-.08-.58.34-.22.64.4.69 16.12 1.2 32.24.23a1.44 1.44 0 0 0 1.24-.8.37.37 0 0 0-.43-.53l-.73.2a.42.42 0 0 1-.42-.68c3.05-3.31 6.06-5.39 10.84-5.42q7.31-.05 14.57.08a1.67 1.63-25.6 0 1 .95.32q2.73 2.08.78 5.08a1.19 1.17 15.9 0 1-.97.53l-6.18.01a.46.46 0 0 0-.38.71q.51.8 1.27.67a18.6 18.6 0 0 1 3.95-.12q.46.02.47.48.06 1.75-1.46 1.7-2.52-.09-5.02.41a.42.42 0 0 0 .07.83l2.58.09a.59.59 0 0 1 .4 1q-3.53 3.55-8.72 3.3-.69-.03-1.01.75-.17.42.29.42h2.5a.52.52 0 0 1 .24.98c-11.94 6-23.75 6.2-37.51 5.95q-4.56-.08-7.76-.82a.33.33 0 0 1-.01-.65l4.71-1.15a.34.33 74.4 0 0 .24-.44q-.09-.28-.24-.27c-3.8.3-7.77 1.36-11.42.39q-6.78-1.81-12.62-5.35a.6.6 0 0 1 .28-1.11l2.05-.1a.49.49 0 0 0 .1-.96q-2.81-.72-5.7-.4a.98.98 0 0 1-.78-.26l-3.72-3.49q-.65-.61.24-.74l1.95-.29a.39.39 0 0 0 .28-.59l-.19-.33q-.14-.22-.4-.23Zm36.42-30.96-1.84.11a.36.36 0 0 0-.34.36v.34q0 .38.38.33c3.94-.5 7.54-1.03 11.74-1.02 3.36.02 9.88.26 12.69-1.73a1.37 1.37 0 0 0 .52-.74c.93-3.48-2.58-7.85-5.74-9.03q-16.58-6.21-33.59-.53-.47.16-.7.59c-1.52 2.77-7.09 6.5-3.49 9.72q.99.88 2.84.89 8.73.06 17.51.03a.34.34 0 0 1 .02.68ZM1291.28 570.01l-.87-.04a.5.5 0 0 1-.41-.76q1.24-2.06 3.38-3.12.49-.25.69-.75c1.75-4.31 11.46-8.82 15.63-10.12 3.2-.99 7.05-1.04 10.64-1.78q.48-.1.85-.43c2.11-1.9 15.83-3.44 19.03-.73q.37.32.85.29c14.19-.95 26.87 6.78 35.51 17.38q.66.82-.39.9l-3.2.23q-.48.03-.24.45l.17.29a.39.37-15 0 0 .33.18h3.77a1.25 1.23 68.4 0 1 .91.4q.71.76.58 1.82-.07.52.28.91 1.94 2.13 2.22 5.04.05.54-.23 1.01-.5.8.24 1.47.36.32.42.81c.84 6.43.19 20.75-5.73 24.63q-.4.27-.41.74-.04 1.72-1.19 3.05c-12.28 14.24-33.27 16.71-51.12 15.13-3.68-.32-14.9-1.88-17.59-5.07q-.31-.37-.77-.5c-13.25-3.82-21.52-17.98-21.06-31.26.11-2.93.03-6.03.76-8.77.65-2.5 3.02-11.19 6.56-10.39q.5.12.57-.39l.05-.35q.03-.25-.23-.27Zm45.16-17.34a5.65.3-.7 0 0-5.65-.23 5.65.3-.7 0 0-5.65.37 5.65.3-.7 0 0 5.65.23 5.65.3-.7 0 0 5.65-.37Zm14.71 19.37.35-.17a.43.43 0 0 0-.14-.82c-1.6-.14-3.55-.09-5.06-.56q-10.59-3.28-21.58-2.13c-2.96.31-4.98 2.04-8.17 2.43a1.23 1.2 14.8 0 0-.83.47c-2.72 3.53-7.42 5.97-8.84 10.16q-1.13 3.34-1.97 4.88-.23.41-.15.88c.43 2.59.52 5.47 1.31 7.76 5.21 15.09 24.06 16.66 37.45 13.58q15.77-3.62 16.32-20.06.08-2.31.35-4.66.05-.5-.28-.87c-2.93-3.34-4.91-7.52-8.82-10a.51.51 0 0 1 .06-.89ZM1794.59 551.98l-16.96.52a.11.1-51.8 0 1-.02-.21q8-2.07 16.15-1.06 1.62.2 1.98.98a.7.7 0 0 0 .69.39c14.22-1.21 27.24 6.56 35.93 17.26a.58.57-22.4 0 1-.39.93l-2.75.28a.43.43 0 0 0-.05.85c1.57.34 5.47-.94 5.08 2.05a1.25 1.25 0 0 0 .28.96q1.85 2.2 2.41 5.02.1.52-.17.98-.64 1.1.28 1.99a1.26 1.23 19.9 0 1 .39.8c.72 7.33.12 19.27-5.77 24.41q-.42.37-.42.92v.44q0 .45-.26.81c-6.73 9.28-16.35 13.77-27.53 15.48q-13.97 2.14-22.46 1.46c-4.23-.34-14.05-1.36-18.78-4.48q-2.11-1.39-3.31-1.85c-12.94-4.92-19.98-18.21-19.5-32.17q.3-8.94 4.11-15.71c.85-1.5 1.15-2.6 3.06-2.01a.5.5 0 0 0 .37-.93l-.74-.36q-.47-.22-.21-.67c1.03-1.76 2.87-2.75 4.05-4.06q9.56-10.57 24.12-10.98a2.19 2.17-58.6 0 0 .93-.23c1.29-.64 2.18.01 3.25-.06q7.96-.54 15.92-.89.27-.02.42-.14.15-.12.21-.27.19-.46-.31-.45Zm12.49 20.07.25-.26a.33.32-62.3 0 0-.17-.55q-6.73-1.24-13.46-2.59c-5.2-1.04-10.03-.47-15.23-.11q-.53.04-.94.37-2.16 1.77-5.04 1.82-.55 0-.87.44c-2.1 2.78-5.02 4.4-6.99 6.99-2.02 2.65-2.19 5.45-3.89 8.04q-.27.41-.17.89c.52 2.41.52 5.1 1.17 7.23 5.01 16.53 26.57 17.64 40.48 13.3 11.14-3.47 14.26-13.25 13.74-23.88q-.03-.49-.34-.86c-3.01-3.65-4.92-6.84-8.52-10.07q-.42-.37-.02-.76ZM2069.44 624.31c-1.76-.65-2.37-2.83-2.47-4.75q-1.3-23.8-2.02-54.31c-.27-11.09 1.87-11.18 11.96-11.27 4.66-.04 7.77 1.33 9.26 5.72a1.03 1.03 0 0 0 1.48.56c8.08-4.56 13.77-9.53 23.77-9.23 3.3.1 4.85 1.74 4.84 5.12q-.02 6.48-.01 11.77a3.92 3.9-4.6 0 1-3.31 3.87c-5.35.83-11.49.92-15.82 3.61-5.32 3.3-9.82 8.39-9.85 15.01q-.05 15.67-.01 31.35c.02 5.6-15.21 3.53-17.82 2.55ZM2198.71 621.4l.09.26q.06.16.23.15l3.03-.18a.53.53 0 0 1 .28 1c-13.29 6.87-30.94 7.16-45.09 5.45q-.27-.03-.44-.19a.44.44 0 0 1 .2-.76l4.42-.98a.42.41 36.8 0 0-.12-.82c-3.54.21-7.45 1.46-10.84.52q-6.94-1.93-13.04-5.52a.58.58 0 0 1 .3-1.08h1.78a.63.62-42.9 0 0 .05-1.25l-5.56-.38a1.31 1.29-21.2 0 1-.81-.35l-3.46-3.27a.43.43 0 0 1 .29-.74l1.62-.03a.68.67 45.5 0 0 .01-1.35q-4.15-.16-5.7-2.77-5.05-8.54-4.71-18.48.01-.45.36-.74l1.09-.91q.53-.43.03-.91l-1.06-1q-.41-.38-.46-.94-.31-3.15 1.11-5.96.22-.43.24-.91c.08-2.9 2.08-10.16 6.31-9.32q.56.11.78 0 .24-.12.35-.37.27-.65-.44-.69-1.67-.08-1.26-1.87.11-.5.47-.87 12.04-12.67 29.99-14.35c19.2-1.8 39.36-1.63 51.48 16.22q.46.68-.34.83l-1.26.24a.48.47-6.6 0 0-.38.47v.27q-.01.47.45.43 4.23-.39 4.53 4 .04.49-.44.61l-1.01.23a.43.43 0 0 0 .07.84l1.79.11a.72.71-5.6 0 1 .65.53c3.39 12.2 4.61 20.14-11.08 18.8q-.45-.04-.55-.48l-.73-3.15a.68.68 0 0 0-.92-.48q-3.02 1.24-6.25.96a1.06 1.05-9.5 0 0-1.07 1.47q.1.22.79.19 3.01-.11 5.7 1.23a.22.22 0 0 1-.1.42l-51.22-.04a2.55 2.54-80.4 0 0-2.42 1.73c-2.42 7.13 5.18 11.11 10.48 13.67a.44.43 63.3 0 1-.27.82l-1.77-.35a.35.35 0 0 0-.4.45l.1.31q.14.45.61.48 17.04 1.12 32.3.12.76-.05 1.06-.74.21-.48-.3-.48h-.98q-.69 0-.24-.52c3.06-3.52 6.18-5.54 11.14-5.5 5.08.04 10.11-.19 15.13.39a1.11 1.09-12.3 0 1 .82.52q1.44 2.34-.04 4.66-.29.45-.83.45h-6.14q-.59 0-.54.59.02.28.27.47.18.14.5.15 2.29.08 4.41.03a.6.6 0 0 1 .59.78c-.65 2.17-4.69 1.3-6.62 1.83a.45.45 0 0 0 .11.88l2.7.03q.67 0 .37.6c-1.81 3.52-6.59 3.57-9.99 4.19q-.32.05-.2.35Zm-30.75-40.42-1.62.03a.36.36 0 0 0-.35.36q0 .17.08.32.21.38.63.33c7.23-.91 14.95-.55 22.26-1.95 6.48-1.25-.59-9.51-3.47-10.57q-16.58-6.1-33.55-.52-.48.16-.72.6c-1.51 2.76-7.38 6.77-3.36 9.84q1.02.78 2.89.8 8.36.07 17.2.02a.37.37 0 0 1 .01.74ZM2829.99 611.5h-.76a.41.41 0 0 1-.31-.68c3.07-3.43 6.02-5.31 10.94-5.34q7.23-.04 14.42.09a1.63 1.6-23.6 0 1 1.03.39q2.6 2.23.48 5.13-.3.41-.81.41h-6.02q-.54 0-.47.54l.05.35q.05.36.41.36h4.78a.48.48 0 0 1 .48.51q-.08 1.32-1.68 1.47-2.39.23-4.97.57a.47.47 0 0 0 .05.93l2.68.03a.53.53 0 0 1 .41.86c-2.87 3.66-5.88 2.64-9.82 3.98a.36.35-55.3 0 0 .12.69l2.97-.13q.28-.01.28.27v.33a.4.39 76.4 0 1-.21.35c-13.15 6.94-31.35 7.16-45.34 5.43a.45.44-47.2 0 1-.03-.88l4.16-.87q.28-.06.41-.31l.23-.43a.19.19 0 0 0-.19-.27c-4.08.5-8.12 1.49-12.11.27q-6.32-1.94-12.06-5.26a.44.43 37.8 0 1-.09-.69l.23-.23a.36.33 19.2 0 1 .26-.11l2.15-.03a.49.49 0 0 0 .13-.97q-2.73-.79-5.55-.42a1.09 1.07 62.4 0 1-.89-.29l-3.59-3.34q-.78-.73.26-.96l1.64-.38q.53-.12.33-.62-.12-.27-.57-.35-1.61-.27-3.25-.46-.51-.06-.88-.42c-4.79-4.83-6.31-13.72-6.36-19.97q0-.56.41-.96l1.3-1.23a.54.54 0 0 0-.03-.81l-1.36-1.12q-.35-.29-.31-.74l.4-4.51a1.2 1.18-20.7 0 1 .33-.71c1.28-1.34.48-2.44.85-3.87.81-3.13 2.56-7.78 6.54-7.21a.55.55 0 0 0 .18-1.08l-.57-.11a1.14 1.14 0 0 1-.62-1.89c12.9-14.08 28.65-15.97 46.7-15.83 14.09.11 27.09 5.1 35.25 17.04a.54.53-22.8 0 1-.34.82l-1.25.24q-.41.08-.41.5v.26a.39.38 88 0 0 .41.39q4.23-.34 4.57 3.76.04.58-.48.83l-.89.41a.39.39 0 0 0 .16.74l1.55.04a.8.79-7 0 1 .74.57c1.13 3.68 3.37 13.48.65 16.57-2.49 2.83-7.84 2.5-11.54 2.37q-.62-.02-.76-.62l-.69-2.97q-.12-.54-.67-.46l-6.96 1.06a.71.71 0 0 0-.6.62q-.07.74.76.74 2.96.02 5.58 1.03a.33.33 0 0 1-.13.64q-25.33-.14-50.64 0-2.35.01-2.89 2.26c-1.68 6.99 5.28 10.57 10.42 13.06a.35.35 0 0 1 .1.56l-.27.27a.36.35 42.5 0 1-.48.02q-.77-.63-1.5-.1a.52.52 0 0 0 .27.93q16.22 1.13 32.53.17.74-.05 1.04-.8.17-.43-.29-.43Zm-20.07-30.51q-.93-.3-1.88.09a.52.51 30.4 0 0 .26.99c3.92-.5 7.48-1.04 11.64-1.02 3.34.01 9.91.25 12.68-1.78a1.33 1.3 78.9 0 0 .51-.78c1-4.2-3.54-8.27-7.19-9.49q-16.51-5.52-33.19.28-.45.16-.21.56l.19.32a.33.32 52.1 0 1-.04.38l-4.25 4.82a1.03 1-25.8 0 0-.25.69c.06 3.06 1.84 4.24 4.84 4.22q8.39-.05 16.77 0 .09 0 .16.07l.22.22a.26.26 0 0 1-.26.43ZM2959.01 569.38q-.03-.66-.76-.61a1.13 1.13 0 0 1-.9-1.89c12.81-13.95 27.33-15.78 45.65-15.82 14.56-.03 28.19 4.59 36.31 16.97q.35.53-.28.66l-1.24.23a.65.65 0 0 0 .16 1.28q4.14-.24 4.46 4.02.04.58-.53.7l-.89.17a.36.35 61.8 0 0-.18.6l.25.24q.09.09.22.06 1.82-.45 2.43 1.76 2.32 8.51 1.54 13.25c-.84 5.18-8.99 4.67-12.93 4.47q-.42-.02-.51-.43l-.74-3.3a.67.66 73.3 0 0-.88-.48q-3.22 1.21-6.64 1a.8.79 53.1 0 0-.22 1.57q2.16.5 4.89.75.65.05.89.4.39.55-.29.55-24.38-.05-48.75-.04c-3.86 0-5.87 1.56-4.85 5.6 1.26 5.06 6.35 7.55 10.65 9.74a.35.35 0 0 1-.16.67h-1.7q-.43 0-.39.43.06.6.57.63 13.87.98 32.05.16.91-.04 1.37-.48a.43.43 0 0 0-.32-.74l-.8.04a.4.4 0 0 1-.32-.67q2.44-2.67 5.49-4.24c4.39-2.26 13.8-1.09 18.84-1.08 3.39 0 4.49 3.01 2.64 5.6q-.25.35-.68.35h-6a.52.52 0 0 0-.45.79l.16.27q.11.19.33.19h4.49q.43 0 .45.43c.13 2.47-4.62 1.82-6.35 2.03q-.41.05-.36.46l.02.33q0 .25.25.25h2.51q.66 0 .42.62c-1.15 3-5.74 3.61-8.49 3.83q-.56.04-.95.43l-.24.25q-.4.39.16.38l2.49-.07a.56.56 0 0 1 .26 1.06c-13.45 6.74-30.83 7.08-44.92 5.31q-.32-.04-.39-.34-.12-.52.41-.63l4.19-.88a.43.42 38.4 0 0-.1-.84c-3.28.06-6.83 1.28-9.86.6q-6.52-1.44-13.08-5.34-2.84-1.69.4-1.06.28.05 1.44-.51a.4.4 0 0 0-.06-.74q-2.7-.84-5.56-.51-.48.06-.84-.26l-3.9-3.4a.48.48 0 0 1 .26-.83l1.69-.2a.66.66 0 0 0-.08-1.32c-3.25.02-4.9-.79-6.44-3.78-1.96-3.77-6.43-16.42-2.38-19.26q.52-.37 0-.75l-1.14-.82q-.47-.35-.5-.93-.18-3.3 1.23-6.18a2.37 2.34-31.8 0 0 .24-.99c.06-3.53 1.98-9.62 6.78-9.26q.49.04.46-.45Zm38.11 11.67q-.8-.18-1.55.06a.48.48 0 0 0 .21.93q8.89-1.35 17.4-1.06 1.9.07 5.94-1.15.47-.13.75-.53c2.9-4.12-3.22-9.16-6.67-10.31q-16.25-5.45-32.67.17-.45.16-.49.63c-.16 1.91-3.42 4.33-4.45 6.21q-.25.45-.1.95c.64 2.21 1.93 3.29 4.39 3.29l17.49.02q.07 0 .08.07l.05.37a.31.31 0 0 1-.38.35ZM1397.87 553.1q.24-.82 1.37-1.05a1.62 1.59 17.6 0 0 .69-.35q.74-.64 1.71-.4.61.15.31.7-1.19 2.13-3.72 1.67-.5-.09-.36-.57ZM322.3 569.59l-7.57-.39a.32.32 0 0 0-.1.63l1.86.53a.2.19-40.8 0 1-.03.38c-6.42.95-18.08 4.4-21.97 10.04-1.25 1.81-1.05 4.66-1.14 6.87-.29 7.21-1.24 15.34-.72 22.47.36 4.93-.09 9.9-.17 14.45a3.85 3.84-88.4 0 1-3.99 3.78l-13.6-.49a3.34 3.33.7 0 1-3.21-3.29l-.6-54.68q-.01-.61.57-.77l.9-.24a.25.25 0 0 0 .18-.24q0-.85-1.1-.61-.53.12-.53-.42v-1.99q0-.71.72-.64.3.03.55.02a.43.43 0 0 0 .17-.82l-.92-.43a.83.83 0 0 1-.47-.73q-.1-4.9 2.08-7.06c2.51-2.48 12.86-1.45 16.65-1.47a1.48 1.46-26.4 0 1 .88.29l4.29 3.19a1.44 1.43 63 0 0 .85.28c.92 0 1.8.09 2.67-.27 17.4-7.1 32.96-8.4 49.95 1.17a.75.75 0 0 1-.51 1.39l-1.05-.21a.37.37 0 0 0-.44.36v.34q0 .51.52.55 7.95.55 10.9 7.9.23.57-.38.68l-1.08.19q-.31.05-.22.35.04.16.1.3a.1.1 0 0 0 .13.06c3.15-1.23 3.99 2.06 4.58 4.79q2.16 10.05 2.48 20.35a.95.95 0 0 1-.41.8q-1.03.69.02 1.5a1.01.97 20.2 0 1 .39.8q-.02 11.26-.26 22.44c-.06 2.91-.1 6.84-3.84 7.01q-7.53.34-14.77.25a4 4 0 0 1-3.95-4.03l.15-21.65q0-.54.25-1.01.51-.98.34-2.03c-1.71-10.68 2.07-19.9-9.92-26.3-2.83-1.52-7.99-3-8.78-4.13a.59.59 0 0 0-.45-.26ZM919.31 570.06c-8.83.29-26.08 9.29-28.46-5.1q-1.13-6.88 5.75-8.55c21.33-5.17 71.47-10.41 83.24 14.92q1.13 2.42 1.14 5.68.05 15.25.01 30.49c-.01 2.53 5.97 5.67 7.84 7.46a1.38 1.35-68.7 0 1 .42.99v8.85a1.49 1.49 0 0 1-.26.84c-2.58 3.81-10.71 2.89-15.21 2.33-3.4-.42-6.97-3.65-10.34-4.95a1.5 1.47-41.8 0 0-.92-.04q-10.14 2.75-20.32 5.05c-18.97 4.29-57.73 5.57-54.48-25.54 2.32-22.3 32.77-24.09 48.93-23.07q4.05.26 8.42 1.61c3.68 1.13 9.71 4.18 13.38 2.49a1.03 1 80.9 0 0 .58-.82q.45-4.83-3.85-7.15c-11.39-6.15-22.02-5.96-35.87-5.49Zm.28 25.38c-15.51 2.7-15.76 17.99.98 18.46 8.01.23 32.85.2 38-5.34 3.18-3.42 1.88-8.7-2.83-9.82-12.33-2.91-23.35-5.54-36.15-3.3ZM1589.51 564.05l-.93-.35a.33.32-45.6 0 1 0-.61q.46-.19.36-.57c-1.47-5.64 1.7-8.02 7.02-8.02 3.77 0 9.17-.64 12.66.61q.42.15.73.48c2.14 2.29 4.31 3.35 7.51 2.03 16.92-6.95 32.81-7.79 49.1 1.6a.67.67 0 0 1-.38 1.25l-1.08-.07a.68.57 43.7 0 0 .14 1.25q7.62.51 10.56 7.5.35.84-.56.84-.32.01-.54.27-.38.46.22.44 2.78-.11 3.47 2.29 3.02 10.45 2.92 23.12-.01.5-.33.88-.64.77.02 1.53.33.39.33.9-.01 9.92.33 19.83c.1 2.83-.05 9.35-4.56 9.51q-6.98.26-14.52.27a3.73 3.73 0 0 1-3.73-3.73v-22.86q0-.5.35-.86.77-.78.25-1.66-.26-.43-.28-.93c-.44-9.24.98-19.49-8.58-24.5q-7.67-4.02-10.75-4.97c-3.02-.92-6.52 1.37-9.47 2.01-6.52 1.39-19.12 5.73-19.21 14.21q-.12 10.63-.5 21.23-.02.53-.35.94-.47.58-.02 1.17.32.41.32.93-.03 6.6 0 13.18c.01 3.25-1.26 4.9-4.53 4.97q-7.29.18-13.74-.47a3.05 3.05 0 0 1-2.74-3.03V613.8q0-.49.18-.94.44-1.09-.05-2.15-.21-.45-.22-.96l-.44-40a.49.48-88.9 0 1 .51-.5q.81.04 1.03-.68.18-.58-.43-.57h-.43a.61.58-7.8 0 1-.54-.39q-.72-1.99.9-2.62a.5.5 0 0 0 0-.94ZM1905.2 570.19c-3.83-4.52-3.74-12.2 3.38-13.89 21.18-5.01 71.99-10.32 83.29 15.26q1.14 2.56 1.14 6.06-.02 15.16-.01 29.85a3.28 3.26-72.4 0 0 1.36 2.64l5.7 4.08a2.84 2.84 0 0 1 1.19 2.31v7.55a4.15 4.15 0 0 1-4.02 4.15c-4.21.15-10.56.85-14.37-1.25q-3.13-1.74-5.93-3.47a3.73 3.71 53 0 0-2.96-.42c-8.18 2.26-17.33 4.96-25.05 6.11-17.66 2.63-45.91 3.26-49.32-20.87-2.14-15.09 10.18-24.59 23.94-27.3 10.24-2.02 23.43-3.12 33.53.05 3.3 1.04 9.73 4.12 13.25 2.49q.42-.19.5-.64.76-4.16-1.43-5.84c-10.13-7.77-24.79-7.47-38.09-7-7.41.26-20.65 6.59-26.1.13Zm14.85 33.58c-3.91 14.79 31.74 9.7 38.06 8.72 5.26-.81 16.18-1.76 13.83-10.13-1.17-4.18-10.94-5.21-16.67-6.45-8.59-1.87-32.12-3.88-35.22 7.86ZM2238.51 573.03c-11.51 2.23-17.25-14.47-3.97-17.29 21.1-4.46 70.19-9.43 81.58 15.84q1.14 2.53 1.14 6.04-.02 14.95-.01 29.89c0 2.39 5.22 5.37 7.07 6.68a2.84 2.83 17.9 0 1 1.18 2.3v7.57a4.14 4.13-1.1 0 1-3.98 4.13q-4.89.19-9.98.02c-3.8-.13-7.25-2.81-10.32-4.7a3.75 3.73-36.8 0 0-2.97-.42q-9.55 2.64-19.8 4.95c-19.37 4.38-56.61 5.53-54.56-24.7 1.59-23.43 33.73-25.17 50.37-23.8q3.52.29 7.82 1.72c2.89.95 9.3 3.94 12.56 2.27a.95.95 0 0 0 .51-.73q.52-4.22-1.66-5.85c-9.65-7.25-22.04-7.1-35.23-6.99-6.84.05-13.04 1.77-19.75 3.07Zm6.65 35.91c5.74 9 35.27 4.1 44.59 2.37 5.84-1.09 10.43-9.88 3.01-12.33-10.41-3.43-39.5-8.93-47.13 1.83q-2.98 4.2-.47 8.13ZM2532.21 571.52c-3.75-2.83-5.67-10.28-1.43-13.58q1.65-1.29 5.75-2.18c20.67-4.51 70.25-9.37 81.1 16.1q1.14 2.68 1.13 6.47-.02 14.74-.01 29.1a3.46 3.46 0 0 0 1.4 2.76l6.2 4.59a1 1 0 0 1 .4.8v8.6a4.07 4.07 0 0 1-4.07 4.07c-4.3 0-9.8.75-13.72-1.09-2.45-1.16-6.83-4.77-9.56-4.03q-9.18 2.51-18.45 4.68c-17.97 4.19-54.08 6.84-55.77-21.07-1.59-26.38 32.65-28.65 50.81-27.06 6.6.58 12.13 4.26 18.78 4.37a1.14 1.12-65.6 0 0 .8-.31q2.6-2.4.31-5.38c-7.68-9.98-35.13-9.59-45.88-7.34-5.24 1.09-13.16 4-17.79.5Zm13.62 35.92c2.06 11.42 39.14 5.12 46.69 3.43 5.68-1.28 7.96-10.11.98-12.06q-5.98-1.66-17.56-3.72c-7.23-1.28-32.71-2.11-30.11 12.35ZM435.03 644.48q-4 .7-8.06 1.03c-7.81.63-3.58-16.43 1.59-16.64q6.52-.27 13.01.45c5.17.58 16.76.74 13.85-7.75q-2.11-6.14-5.23-11.83a1.57 1.53 34.8 0 1-.18-.93c.17-1.53-.98-2.01-1.48-3.02q-3.25-6.54-6.67-12.98-.22-.41.09-.77l.97-1.14a.41.41 0 0 0-.39-.67q-.74.14-1.37-.13-.5-.22-.75-.7l-9.94-19.2a.66.65-33.6 0 1 .17-.81l.64-.53a.74.73 23.8 0 0-.51-1.3q-1.4.07-2.26-1.3c-1.73-2.79-6.63-10.52-3.54-13.41a1.26 1.23 22.4 0 1 .87-.35q7.01-.01 13.97.01c5.95.01 8.39 6.85 10.06 11.43q.2.54-.35.75l-.94.36a.61.61 0 0 0 .32 1.17c1.58-.29 2.52.24 3.22 1.72q4 8.49 8.04 16.95c.52 1.08 1.69 2.01 1.46 3.59q-.07.48.26.86 2.42 2.82 3.96 6.21c4.37 9.59 8.97-2.9 10.04-5.98q.2-.59.82-.52 1.41.16 1.58-1.17.06-.51.52-.72l.81-.38a.26.26 0 0 0-.07-.49l-.9-.12a.53.53 0 0 1-.41-.76l4.58-9.53q.23-.47.75-.54l.99-.13a.56.55-11.6 0 0 .46-.69q-.11-.4-.48-.51-.73-.22-.41-.91c1.69-3.74 3.81-7.42 5.33-11.17q.83-2.04 3.68-2.09a.46.46 0 0 0 .08-.92l-1.34-.25a.6.58-76.8 0 1-.45-.74c2.07-7.63 11.46-5.49 17.33-5.26q1.67.07 2.52 1.22a1.38 1.37-22.4 0 1-.91 2.18l-5.2.75a.59.59 0 0 0 .16 1.17l5.94-.76a.51.5-82.3 0 1 .53.7q-2.66 6.25-5.64 12.09c-.41.81-1.48 2.14-1.88 3.42-1.05 3.36-3.77 9.34-6.37 11.63q-.38.34-.12.78l.19.33q.29.48.06 1l-1.37 3.06q-.22.48-.62.83c-1.12.96-1.08 2.27-1.53 3.21q-1.82 3.79-3.58 7.61c-.5 1.09-1.69 1.92-2.07 3.33q-.35 1.33-.44 1.55-5.69 14.18-13.8 27.11c-2.67 4.27-5.66 4-9.97 5.18q-.54.15-.31.66.07.17.22.26.13.08.37.04 1.58-.24 3.11.08.63.13.18.58c-7.88 8-26.56 8.23-37.27 6.55q-.46-.07-.22-.47l.16-.28a.52.5 13.9 0 1 .42-.24q2.16-.07 3.94-1.18a.32.32 0 0 0-.22-.58ZM1569.75 598.68q.89 1.2 2.44.72a.76.76 0 0 1 .99.72q.16 9.27.82 18.38c.27 3.8-.71 8-5.64 8-3.7-.01-14.74 1.7-14.97-4q-1.53-37.4-.89-64.26c.11-4.56 11.72-3.6 14.76-3.42q4.9.3 5.37 5.12.75 7.65.23 37.42a.6.6 0 0 1-.66.59l-1.94-.19a.58.57 74.1 0 0-.51.92ZM2934.57 597.95a.78.78 0 0 0 .37 1.46h1.97a.56.56 0 0 1 .56.55q.16 9.06.69 18.04c.19 3.1-.16 8.16-3.97 8.3-4.07.14-16.23 2.29-16.49-4.05q-1.12-26.7-.89-63c.04-6.03 10.15-4.56 14.44-4.41 5.9.22 6.06 4.96 6.01 9.6q-.15 16.41.23 32.98a.95.95 0 0 1-1.64.68q-.54-.55-1.28-.15ZM3202.94 624.06c-3.81-2.56-4.54-8.95-2.89-12.82 4.07-9.53 22.81-8.62 25.05 2.22 2.85 13.81-13.42 16.48-22.16 10.6Z"/><path fill="#000000" d="M3184.13 626.42q-1.2 2.79-1.93 2.65a2.06 1.77 46.2 0 1-.2-3.82h1.36q1.27 0 .77 1.17Z"/></svg>